<?xml version="1.0" encoding="UTF-8"?>
<svg width="7px" height="12px" viewBox="0 0 7 12" version="1.1" xmlns="http://www.w3.org/2000/svg" xmlns:xlink="http://www.w3.org/1999/xlink">
    <!-- Generator: Sketch 41.2 (35397) - http://www.bohemiancoding.com/sketch -->
    <title>arrow-left</title>
    <desc>Created with Sketch.</desc>
    <defs></defs>
    <g id="Welcome" stroke="none" stroke-width="1" fill="none" fill-rule="evenodd">
        <path d="M6.85714286,5.85714286 C6.85714286,6.05059621 6.78645904,6.21800525 6.64508929,6.359375 L1.64508929,11.359375 C1.50371953,11.5007448 1.33631049,11.5714286 1.14285714,11.5714286 C0.949403795,11.5714286 0.781994754,11.5007448 0.640625,11.359375 C0.499255246,11.2180052 0.428571429,11.0505962 0.428571429,10.8571429 L0.428571429,0.857142857 C0.428571429,0.663689509 0.499255246,0.496280469 0.640625,0.354910714 C0.781994754,0.21354096 0.949403795,0.142857143 1.14285714,0.142857143 C1.33631049,0.142857143 1.50371953,0.21354096 1.64508929,0.354910714 L6.64508929,5.35491071 C6.78645904,5.49628047 6.85714286,5.66368951 6.85714286,5.85714286 Z" id="arrow-left" fill="#000000" transform="translate(3.642857, 5.857143) scale(-1, 1) translate(-3.642857, -5.857143) "></path>
    </g>
</svg>