<?xml version="1.0" encoding="UTF-8"?>
<svg width="23px" height="23px" viewBox="0 0 23 23" version="1.1" xmlns="http://www.w3.org/2000/svg" xmlns:xlink="http://www.w3.org/1999/xlink">
    <!-- Generator: Sketch 41.2 (35397) - http://www.bohemiancoding.com/sketch -->
    <title>burst</title>
    <desc>Created with Sketch.</desc>
    <defs></defs>
    <g id="Welcome" stroke="none" stroke-width="1" fill="none" fill-rule="evenodd">
        <path d="M13.964637,20.7277626 L13.9685794,20.7412326 C13.9756824,20.7340149 13.9817375,20.7227576 13.964637,20.7277626 Z M4.70725453,4.59203327 C4.7039408,4.58062056 4.68255653,4.65940469 4.68315713,4.65884284 C4.73083326,4.61112796 4.65204913,4.63251222 4.65660125,4.63384455 L4.72469776,4.65324912 L4.70725453,4.59203327 Z M13.9910714,20.7142857 C13.9926799,20.7142857 14.0313775,20.7309506 14.0462218,20.7451762 L14.0131866,20.7113896 C13.998145,20.7134143 13.9902724,20.7142857 13.9910714,20.7142857 Z M12.214834,18.8721344 L11.5,18.1414152 L9.02249078,20.6739802 L8.39748914,18.225831 L8.14317938,17.2297845 L4.72467769,18.2038737 L5.41707596,15.7740382 L5.69878695,14.785392 L2.25433601,13.9059578 L4.05643701,12.1434055 L4.78715624,11.4285714 L2.25462789,8.95109805 L4.70274039,8.32606057 L5.69878695,8.07175081 L4.72469776,4.65324912 L7.15453327,5.34564739 L8.14317938,5.62735838 L9.02251582,2.18329064 L10.7826469,3.99581696 L11.5,4.73442494 L13.977579,2.18343615 L14.6025109,4.63131182 L14.8568206,5.62735838 L18.2753223,4.65326919 L17.582924,7.0831047 L17.301213,8.07175081 L20.745664,8.95118509 L18.943563,10.7137374 L18.2128438,11.4285714 L20.7453721,13.9060448 L18.2972596,14.5310823 L17.301213,14.785392 L18.2753022,18.2038937 L15.8454667,17.5114955 L14.8568206,17.2297845 L13.9772771,20.6746633 L12.214834,18.8721344 Z M13.9596537,20.7436882 C13.9582489,20.7492865 13.9636649,20.7462265 13.9685794,20.7412326 L14.2455357,21.6875 L14.0811367,20.7011061 C14.0519352,20.705973 14.0287322,20.7092972 14.0131866,20.7113896 L13.9772771,20.6746633 L13.9596537,20.7436882 Z M10.7826469,2.60239732 L12.2173531,2.60239732 L11.5000008,1.86379013 L10.7826469,2.60239732 Z M6.45965372,4.13654533 L7.70260959,3.42220975 L6.71398555,3.14050505 L6.45965372,4.13654533 Z M22.1903656,10.3353697 C22.7083296,9.85231371 22.9030309,9.17085905 22.7317348,8.45141519 C22.5128472,7.69892268 22.010483,7.20621934 21.3050356,7.0298575 L19.7880713,6.64253967 L20.2161831,5.14010959 C20.4271562,4.41937578 20.2361307,3.7155979 19.6831571,3.19830002 C19.2129735,2.6924407 18.5091957,2.50141528 17.7816012,2.71436974 L16.286039,3.1405086 L15.8974891,1.61868818 C15.7223166,0.900236881 15.2113703,0.389290587 14.4824919,0.211515376 C13.7894214,0.0252984444 13.1019384,0.211900982 12.5890473,0.742477903 L11.5000008,1.86379013 L10.4093174,0.740790182 C9.90493782,0.201369272 9.20115994,0.0103438475 8.47356553,0.223298307 C7.78862974,0.389290587 7.27768344,0.900236881 7.09990823,1.62911525 L6.71398555,3.14050505 L5.21153816,2.71238832 C4.49080435,2.50141528 3.78702647,2.6924407 3.26972859,3.2454143 C2.76386927,3.7155979 2.57284385,4.41937578 2.78579831,5.14697018 L3.21193717,6.6425324 L1.69011675,7.03108229 C0.989517029,7.20621934 0.487152836,7.69892268 0.281334022,8.40213696 C0.0969690565,9.17085905 0.291670389,9.85231371 0.826610321,10.351591 L1.92720811,11.4284945 L0.809634416,12.5217731 C0.291670389,13.0048291 0.0969690565,13.6862838 0.268265214,14.4057277 C0.487152836,15.1582202 0.989517029,15.6509235 1.69496437,15.8272854 L3.21192869,16.2146032 L2.78381689,17.7170333 C2.57284385,18.4377671 2.76386927,19.141545 3.31684287,19.6588428 C3.78702647,20.1647022 4.49080435,20.3557276 5.21839875,20.1427731 L6.71396097,19.7166343 L7.10251086,21.2384547 C7.27589503,21.9495735 7.77715252,22.4606595 8.49533572,22.6533428 C9.24228762,22.8316024 9.92374228,22.636901 10.4230196,22.1019611 L11.4999231,21.0013633 L12.5932017,22.118937 C12.9384923,22.4997519 13.4358206,22.7142857 13.9910714,22.7142857 C14.117697,22.7142857 14.2531045,22.7000323 14.4099347,22.6738939 L14.5264345,22.6472374 C15.2296487,22.4414186 15.7223521,21.9390544 15.8987139,21.2336071 L16.2860318,19.7166427 L17.7884618,20.1447545 C18.5091957,20.3557276 19.2129735,20.1647022 19.7302714,19.6117286 C20.2361307,19.141545 20.4271562,18.4377671 20.2142017,17.7101727 L19.7880628,16.2146105 L21.3098832,15.8260606 C22.010483,15.6509235 22.5128472,15.1582202 22.718666,14.4550059 C22.9030309,13.6862838 22.7083296,13.0048291 22.1733897,12.5055519 L21.0727919,11.4286484 L22.1903656,10.3353697 Z" id="burst" fill="#000000"></path>
    </g>
</svg>