<?xml version="1.0" encoding="UTF-8"?>
<svg width="9px" height="15px" viewBox="0 0 9 15" version="1.1" xmlns="http://www.w3.org/2000/svg" xmlns:xlink="http://www.w3.org/1999/xlink">
    <!-- Generator: Sketch 41.2 (35397) - http://www.bohemiancoding.com/sketch -->
    <title>caret-left</title>
    <desc>Created with Sketch.</desc>
    <defs></defs>
    <g id="Welcome" stroke="none" stroke-width="1" fill="none" fill-rule="evenodd">
        <path d="M8.44419643,1.34709821 C8.44419643,1.47284289 8.39583382,1.5840769 8.29910714,1.68080357 L2.59709821,7.3828125 L8.29910714,13.0848214 C8.39583382,13.1815481 8.44419643,13.2927821 8.44419643,13.4185268 C8.44419643,13.5442715 8.39583382,13.6555055 8.29910714,13.7522321 L7.57366071,14.4776786 C7.47693404,14.5744052 7.36570003,14.6227679 7.23995536,14.6227679 C7.11421068,14.6227679 7.00297667,14.5744052 6.90625,14.4776786 L0.145089286,7.71651786 C0.0483626116,7.61979118 0,7.50855718 0,7.3828125 C0,7.25706782 0.0483626116,7.14583382 0.145089286,7.04910714 L6.90625,0.287946429 C7.00297667,0.191219754 7.11421068,0.142857143 7.23995536,0.142857143 C7.36570003,0.142857143 7.47693404,0.191219754 7.57366071,0.287946429 L8.29910714,1.01339286 C8.39583382,1.11011953 8.44419643,1.22135354 8.44419643,1.34709821 Z" id="caret-left" fill="#000000"></path>
    </g>
</svg>