<?xml version="1.0" encoding="UTF-8"?>
<svg width="9px" height="15px" viewBox="0 0 9 15" version="1.1" xmlns="http://www.w3.org/2000/svg" xmlns:xlink="http://www.w3.org/1999/xlink">
    <!-- Generator: Sketch 41.2 (35397) - http://www.bohemiancoding.com/sketch -->
    <title>caret-right</title>
    <desc>Created with Sketch.</desc>
    <defs></defs>
    <g id="Welcome" stroke="none" stroke-width="1" fill="none" fill-rule="evenodd">
        <path d="M8.44419643,7.3828125 C8.44419643,7.50855718 8.39583382,7.61979118 8.29910714,7.71651786 L1.53794643,14.4776786 C1.44121975,14.5744052 1.32998575,14.6227679 1.20424107,14.6227679 C1.0784964,14.6227679 0.967262388,14.5744052 0.870535714,14.4776786 L0.145089286,13.7522321 C0.0483626116,13.6555055 0,13.5442715 0,13.4185268 C0,13.2927821 0.0483626116,13.1815481 0.145089286,13.0848214 L5.84709821,7.3828125 L0.145089286,1.68080357 C0.0483626116,1.5840769 0,1.47284289 0,1.34709821 C0,1.22135354 0.0483626116,1.11011953 0.145089286,1.01339286 L0.870535714,0.287946429 C0.967262388,0.191219754 1.0784964,0.142857143 1.20424107,0.142857143 C1.32998575,0.142857143 1.44121975,0.191219754 1.53794643,0.287946429 L8.29910714,7.04910714 C8.39583382,7.14583382 8.44419643,7.25706782 8.44419643,7.3828125 Z" id="caret-right" fill="#000000"></path>
    </g>
</svg>