<?xml version="1.0" encoding="UTF-8"?>
<svg width="19px" height="18px" viewBox="0 0 19 18" version="1.1" xmlns="http://www.w3.org/2000/svg" xmlns:xlink="http://www.w3.org/1999/xlink">
    <!-- Generator: Sketch 41.2 (35397) - http://www.bohemiancoding.com/sketch -->
    <title>envelope</title>
    <desc>Created with Sketch.</desc>
    <defs></defs>
    <g id="Welcome" stroke="none" stroke-width="1" fill="none" fill-rule="evenodd" opacity="0.74">
        <path d="M17.7721409,6.59272269 L17.7721409,13.6820084 C17.7721409,14.0748675 17.6322613,14.4111737 17.352498,14.690937 C17.0727347,14.9707003 16.7364285,15.1105798 16.3435694,15.1105798 L3.20071228,15.1105798 C2.80785317,15.1105798 2.47154701,14.9707003 2.19178371,14.690937 C1.91202041,14.4111737 1.77214085,14.0748675 1.77214085,13.6820084 L1.77214085,6.59272269 C2.03404692,6.88439082 2.33463916,7.1433168 2.67392657,7.3695084 C4.82869925,8.83380144 6.30785112,9.86057689 7.11142657,10.4498655 C7.45071398,10.6998668 7.72600884,10.8948053 7.93731942,11.034687 C8.14863,11.1745686 8.42987719,11.3174243 8.78106942,11.4632584 C9.13226166,11.6090925 9.45963933,11.6820084 9.76321228,11.6820084 L9.78106942,11.6820084 C10.0846424,11.6820084 10.41202,11.6090925 10.7632123,11.4632584 C11.1144045,11.3174243 11.3956517,11.1745686 11.6069623,11.034687 C11.8182729,10.8948053 12.0935677,10.6998668 12.4328551,10.4498655 C13.444765,9.71771903 14.926893,8.69094358 16.8792837,7.3695084 C17.2185711,7.13736439 17.5161872,6.8784384 17.7721409,6.59272269 Z M17.7721409,3.96772269 C17.7721409,4.43796314 17.626309,4.8873634 17.3346409,5.31593698 C17.0429727,5.74451055 16.6798811,6.11057832 16.2453551,6.41415126 C14.0072487,7.96773046 12.6144055,8.93498269 12.0667837,9.31593698 C12.0072596,9.35760385 11.8807728,9.44837675 11.6873194,9.5882584 C11.4938661,9.72814006 11.3331534,9.84123416 11.2051766,9.92754412 C11.0771997,10.0138541 10.9224394,10.1105793 10.7408909,10.2177227 C10.5593423,10.3248661 10.3882131,10.4052224 10.227498,10.4587941 C10.0667829,10.5123658 9.91797487,10.5391513 9.78106942,10.5391513 L9.76321228,10.5391513 C9.62630683,10.5391513 9.4774988,10.5123658 9.31678371,10.4587941 C9.15606862,10.4052224 8.98493938,10.3248661 8.80339085,10.2177227 C8.62184233,10.1105793 8.46708197,10.0138541 8.33910514,9.92754412 C8.21112831,9.84123416 8.05041563,9.72814006 7.85696228,9.5882584 C7.66350893,9.44837675 7.5370221,9.35760385 7.477498,9.31593698 C6.93582862,8.93498269 6.15607451,8.39183336 5.13821228,7.68647269 C4.12035005,6.98111202 3.5102371,6.55700912 3.30785514,6.41415126 C2.93880567,6.16415001 2.59059487,5.82040345 2.26321228,5.38290126 C1.93582969,4.94539907 1.77214085,4.53915314 1.77214085,4.16415126 C1.77214085,3.69986323 1.89565152,3.31296233 2.14267657,3.00343698 C2.38970161,2.69391162 2.74237666,2.53915126 3.20071228,2.53915126 L16.3435694,2.53915126 C16.7304761,2.53915126 17.0652942,2.67903082 17.3480337,2.95879412 C17.6307732,3.23855742 17.7721409,3.57486358 17.7721409,3.96772269 Z" id="envelope" fill="#000000" transform="translate(9.772141, 8.824866) rotate(-22.000000) translate(-9.772141, -8.824866) "></path>
    </g>
</svg>