<?xml version="1.0" encoding="UTF-8"?>
<svg width="14px" height="14px" viewBox="0 0 14 14" version="1.1" xmlns="http://www.w3.org/2000/svg" xmlns:xlink="http://www.w3.org/1999/xlink">
    <!-- Generator: Sketch 41.2 (35397) - http://www.bohemiancoding.com/sketch -->
    <title>expand</title>
    <desc>Created with Sketch.</desc>
    <defs></defs>
    <g id="Welcome" stroke="none" stroke-width="1" fill="none" fill-rule="evenodd">
        <path d="M6.74107143,8.28571429 C6.74107143,8.36309563 6.71130982,8.43154732 6.65178571,8.49107143 L3.6875,11.4553571 L4.97321429,12.7410714 C5.08631009,12.8541672 5.14285714,12.9880945 5.14285714,13.1428571 C5.14285714,13.2976198 5.08631009,13.4315471 4.97321429,13.5446429 C4.86011848,13.6577387 4.72619125,13.7142857 4.57142857,13.7142857 L0.571428571,13.7142857 C0.416665893,13.7142857 0.282738661,13.6577387 0.169642857,13.5446429 C0.0565470536,13.4315471 0,13.2976198 0,13.1428571 L0,9.14285714 C0,8.98809446 0.0565470536,8.85416723 0.169642857,8.74107143 C0.282738661,8.62797563 0.416665893,8.57142857 0.571428571,8.57142857 C0.72619125,8.57142857 0.860118482,8.62797563 0.973214286,8.74107143 L2.25892857,10.0267857 L5.22321429,7.0625 C5.28273839,7.00297589 5.35119009,6.97321429 5.42857143,6.97321429 C5.50595277,6.97321429 5.57440446,7.00297589 5.63392857,7.0625 L6.65178571,8.08035714 C6.71130982,8.13988125 6.74107143,8.20833295 6.74107143,8.28571429 Z M13.7142857,0.571428571 L13.7142857,4.57142857 C13.7142857,4.72619125 13.6577387,4.86011848 13.5446429,4.97321429 C13.4315471,5.08631009 13.2976198,5.14285714 13.1428571,5.14285714 C12.9880945,5.14285714 12.8541672,5.08631009 12.7410714,4.97321429 L11.4553571,3.6875 L8.49107143,6.65178571 C8.43154732,6.71130982 8.36309563,6.74107143 8.28571429,6.74107143 C8.20833295,6.74107143 8.13988125,6.71130982 8.08035714,6.65178571 L7.0625,5.63392857 C7.00297589,5.57440446 6.97321429,5.50595277 6.97321429,5.42857143 C6.97321429,5.35119009 7.00297589,5.28273839 7.0625,5.22321429 L10.0267857,2.25892857 L8.74107143,0.973214286 C8.62797562,0.860118482 8.57142857,0.72619125 8.57142857,0.571428571 C8.57142857,0.416665893 8.62797562,0.282738661 8.74107143,0.169642857 C8.85416723,0.0565470536 8.98809446,0 9.14285714,0 L13.1428571,0 C13.2976198,0 13.4315471,0.0565470536 13.5446429,0.169642857 C13.6577387,0.282738661 13.7142857,0.416665893 13.7142857,0.571428571 Z" id="expand" fill="#000000"></path>
    </g>
</svg>