<?xml version="1.0" encoding="UTF-8"?>
<svg width="44px" height="43px" viewBox="0 0 44 43" version="1.1" xmlns="http://www.w3.org/2000/svg" xmlns:xlink="http://www.w3.org/1999/xlink">
    <!-- Generator: Sketch 41.2 (35397) - http://www.bohemiancoding.com/sketch -->
    <title>facebook</title>
    <desc>Created with Sketch.</desc>
    <defs></defs>
    <g id="Welcome" stroke="none" stroke-width="1" fill="none" fill-rule="evenodd">
        <g id="facebook" fill="#000000">
            <path d="M22,42.2378238 C33.8707656,42.2378238 43.5,32.8979654 43.5,21.3689119 C43.5,9.83985841 33.8707656,0.5 22,0.5 C10.1292344,0.5 0.5,9.83985841 0.5,21.3689119 C0.5,32.8979654 10.1292344,42.2378238 22,42.2378238 Z M22,41.2378238 C10.6748061,41.2378238 1.5,32.3387373 1.5,21.3689119 C1.5,10.3990866 10.6748061,1.5 22,1.5 C33.3251939,1.5 42.5,10.3990866 42.5,21.3689119 C42.5,32.3387373 33.3251939,41.2378238 22,41.2378238 Z" id="Oval-2"></path>
            <path d="M27.9866071,10.3188194 L27.9866071,13.8545337 L25.8839286,13.8545337 C25.1160676,13.8545337 24.5982156,14.0152464 24.3303571,14.3366765 C24.0624987,14.6581067 23.9285714,15.1402448 23.9285714,15.7831051 L23.9285714,18.3143551 L27.8526786,18.3143551 L27.3303571,22.2786408 L23.9285714,22.2786408 L23.9285714,32.4438194 L19.8303571,32.4438194 L19.8303571,22.2786408 L16.4151786,22.2786408 L16.4151786,18.3143551 L19.8303571,18.3143551 L19.8303571,15.3947123 C19.8303571,13.7339897 20.2946382,12.4460561 21.2232143,11.530873 C22.1517904,10.6156898 23.3883851,10.1581051 24.9330357,10.1581051 C26.2455423,10.1581051 27.2633892,10.211676 27.9866071,10.3188194 Z" id="" opacity="0.74"></path>
        </g>
    </g>
</svg>