<?xml version="1.0" encoding="UTF-8"?>
<svg width="16px" height="17px" viewBox="0 0 16 17" version="1.1" xmlns="http://www.w3.org/2000/svg" xmlns:xlink="http://www.w3.org/1999/xlink">
    <!-- Generator: Sketch 41.2 (35397) - http://www.bohemiancoding.com/sketch -->
    <title>filter</title>
    <desc>Created with Sketch.</desc>
    <defs></defs>
    <g id="Welcome" stroke="none" stroke-width="1" fill="none" fill-rule="evenodd">
        <path d="M15.8013393,1.14955357 C15.927828,1.45461462 15.8757452,1.71502868 15.6450893,1.93080357 L10.1428571,7.43303571 L10.1428571,15.7142857 C10.1428571,16.0267873 9.99776931,16.2462791 9.70758929,16.3727679 C9.61086261,16.4099704 9.51785759,16.4285714 9.42857143,16.4285714 C9.22767757,16.4285714 9.06026853,16.3578876 8.92633929,16.2165179 L6.06919643,13.359375 C5.92782667,13.2180052 5.85714286,13.0505962 5.85714286,12.8571429 L5.85714286,7.43303571 L0.354910714,1.93080357 C0.124254799,1.71502868 0.0721719866,1.45461462 0.198660714,1.14955357 C0.325149442,0.859373549 0.544641295,0.714285714 0.857142857,0.714285714 L15.1428571,0.714285714 C15.4553587,0.714285714 15.6748506,0.859373549 15.8013393,1.14955357 Z" id="filter" fill="#000000"></path>
    </g>
</svg>