<?xml version="1.0" encoding="UTF-8"?>
<svg width="44px" height="43px" viewBox="0 0 44 43" version="1.1" xmlns="http://www.w3.org/2000/svg" xmlns:xlink="http://www.w3.org/1999/xlink">
    <!-- Generator: Sketch 41.2 (35397) - http://www.bohemiancoding.com/sketch -->
    <title>googleplus</title>
    <desc>Created with Sketch.</desc>
    <defs></defs>
    <g id="Welcome" stroke="none" stroke-width="1" fill="none" fill-rule="evenodd">
        <g id="googleplus" fill="#000000">
            <path d="M22,42.2378238 C33.8707656,42.2378238 43.5,32.8979654 43.5,21.3689119 C43.5,9.83985841 33.8707656,0.5 22,0.5 C10.1292344,0.5 0.5,9.83985841 0.5,21.3689119 C0.5,32.8979654 10.1292344,42.2378238 22,42.2378238 Z M22,41.2378238 C10.6748061,41.2378238 1.5,32.3387373 1.5,21.3689119 C1.5,10.3990866 10.6748061,1.5 22,1.5 C33.3251939,1.5 42.5,10.3990866 42.5,21.3689119 C42.5,32.3387373 33.3251939,41.2378238 22,41.2378238 Z" id="Oval-2"></path>
            <path d="M22.2008929,20.8188194 C22.2008929,21.1402496 22.3437486,21.4549786 22.6294643,21.7630158 C22.91518,22.0710531 23.2611587,22.3746215 23.6674107,22.6737301 C24.0736627,22.9728387 24.4776766,23.3009605 24.8794643,23.6581051 C25.281252,24.0152498 25.6249986,24.4795308 25.9107143,25.0509623 C26.19643,25.6223937 26.3392857,26.2563159 26.3392857,26.952748 C26.3392857,27.7563234 26.1250021,28.5286371 25.6964286,29.2697123 C25.0535682,30.3590034 24.1116133,31.1603347 22.8705357,31.6737301 C21.6294581,32.1871255 20.2991142,32.4438194 18.8794643,32.4438194 C17.700887,32.4438194 16.6004515,32.2585534 15.578125,31.8880158 C14.5557985,31.5174783 13.7901811,30.9036451 13.28125,30.046498 C12.9508912,29.510781 12.7857143,28.9259654 12.7857143,28.2920337 C12.7857143,27.5688158 12.984373,26.8991796 13.3816964,26.2831051 C13.7790198,25.6670306 14.3080324,25.1536429 14.96875,24.7429265 C16.1383987,24.01078 17.9419521,23.5643559 20.3794643,23.4036408 C20.0937486,23.0286389 19.8816971,22.6982851 19.7433036,22.4125694 C19.60491,22.1268537 19.5357143,21.8009641 19.5357143,21.4348908 C19.5357143,21.1134606 19.6294633,20.7340002 19.8169643,20.296498 C19.4062479,20.3322124 19.1026796,20.3500694 18.90625,20.3500694 C17.5848148,20.3500694 16.4709867,19.9192701 15.5647321,19.0576587 C14.6584776,18.1960472 14.2053571,17.1045403 14.2053571,15.7831051 C14.2053571,15.0509586 14.3660698,14.3411443 14.6875,13.6536408 C15.0089302,12.9661374 15.45089,12.3813218 16.0133929,11.8991765 C16.7008963,11.3098879 17.5156203,10.8723923 18.4575893,10.5866765 C19.3995583,10.3009608 20.3705307,10.1581051 21.3705357,10.1581051 L26.96875,10.1581051 L25.1205357,11.3366765 L23.3660714,11.3366765 C24.026789,11.8991793 24.526784,12.4929234 24.8660714,13.1179265 C25.2053588,13.7429297 25.375,14.4572082 25.375,15.2607837 C25.375,15.903644 25.2656261,16.4817633 25.046875,16.9951587 C24.8281239,17.5085541 24.5647337,17.9237285 24.2566964,18.2406944 C23.9486592,18.5576603 23.6383944,18.8478359 23.3258929,19.1112301 C23.0133913,19.3746243 22.747769,19.6491751 22.5290179,19.9348908 C22.3102668,20.2206065 22.2008929,20.5152464 22.2008929,20.8188194 Z M20.2455357,19.5331051 C20.5848231,19.5331051 20.9330339,19.4594451 21.2901786,19.312123 C21.6473232,19.1648008 21.9419631,18.9706063 22.1741071,18.7295337 C22.6473238,18.2206026 22.8839286,17.5107882 22.8839286,16.6000694 C22.8839286,16.0822097 22.8080365,15.5241795 22.65625,14.9259623 C22.5044635,14.327745 22.2879478,13.7496258 22.0066964,13.1915873 C21.725445,12.6335487 21.3482167,12.1714998 20.875,11.8054265 C20.4017833,11.4393533 19.8794671,11.2563194 19.3080357,11.2563194 C18.9330338,11.2563194 18.564734,11.3433721 18.203125,11.5174801 C17.841516,11.6915881 17.5491083,11.9259608 17.3258929,12.2206051 C16.9062479,12.7473935 16.6964286,13.461672 16.6964286,14.3634623 C16.6964286,14.7741786 16.741071,15.2094421 16.8303571,15.6692658 C16.9196433,16.1290895 17.0602669,16.5889064 17.2522321,17.0487301 C17.4441974,17.5085538 17.6763379,17.9214961 17.9486607,18.2875694 C18.2209835,18.6536427 18.5558016,18.9527468 18.953125,19.1848908 C19.3504484,19.4170348 19.7812477,19.5331051 20.2455357,19.5331051 Z M20.2723214,31.2250694 C20.7901812,31.2250694 21.287944,31.1670343 21.765625,31.0509623 C22.243306,30.9348902 22.6852658,30.7607848 23.0915179,30.5286408 C23.4977699,30.2964968 23.8236595,29.9706072 24.0691964,29.5509623 C24.3147334,29.1313173 24.4375,28.644715 24.4375,28.0911408 C24.4375,27.8679254 24.4062503,27.6491776 24.34375,27.4348908 C24.2812497,27.220604 24.2165182,27.0331059 24.1495536,26.8723908 C24.082589,26.7116757 23.9620544,26.5264097 23.7879464,26.3165873 C23.6138384,26.1067648 23.4821433,25.9505163 23.3928571,25.8478373 C23.303571,25.7451582 23.1316977,25.5911418 22.8772321,25.3857837 C22.6227666,25.1804255 22.4598218,25.0509625 22.3883929,24.9973908 C22.3169639,24.9438191 22.1316979,24.8098919 21.8325893,24.5956051 C21.5334806,24.3813183 21.3705358,24.2652481 21.34375,24.2473908 C21.2008921,24.2295336 20.9866086,24.2206051 20.7008929,24.2206051 C20.2276762,24.2206051 19.7589309,24.2518548 19.2946429,24.3143551 C18.8303548,24.3768554 18.3504489,24.4884614 17.8549107,24.6491765 C17.3593725,24.8098916 16.9263411,25.0152467 16.5558036,25.265248 C16.185266,25.5152492 15.8794655,25.8478352 15.6383929,26.2630158 C15.3973202,26.6781965 15.2767857,27.1491739 15.2767857,27.6759623 C15.2767857,28.3009654 15.4330342,28.8522991 15.7455357,29.3299801 C16.0580373,29.8076611 16.4665153,30.1781931 16.9709821,30.4415873 C17.475449,30.7049814 18.0066936,30.901408 18.5647321,31.030873 C19.1227706,31.1603379 19.6919614,31.2250694 20.2723214,31.2250694 Z M31.1205357,19.4929265 L33.9732143,19.4929265 L33.9732143,20.9393551 L31.1205357,20.9393551 L31.1205357,23.8723908 L29.7142857,23.8723908 L29.7142857,20.9393551 L26.875,20.9393551 L26.875,19.4929265 L29.7142857,19.4929265 L29.7142857,16.5866765 L31.1205357,16.5866765 L31.1205357,19.4929265 Z" id="" opacity="0.74"></path>
        </g>
    </g>
</svg>