<?xml version="1.0" encoding="UTF-8"?>
<svg width="44px" height="43px" viewBox="0 0 44 43" version="1.1" xmlns="http://www.w3.org/2000/svg" xmlns:xlink="http://www.w3.org/1999/xlink">
    <!-- Generator: Sketch 41.2 (35397) - http://www.bohemiancoding.com/sketch -->
    <title>linkedin</title>
    <desc>Created with Sketch.</desc>
    <defs></defs>
    <g id="Welcome" stroke="none" stroke-width="1" fill="none" fill-rule="evenodd">
        <g id="linkedin" fill="#000000">
            <path d="M22,42.2378238 C33.8707656,42.2378238 43.5,32.8979654 43.5,21.3689119 C43.5,9.83985841 33.8707656,0.5 22,0.5 C10.1292344,0.5 0.5,9.83985841 0.5,21.3689119 C0.5,32.8979654 10.1292344,42.2378238 22,42.2378238 Z M22,41.2378238 C10.6748061,41.2378238 1.5,32.3387373 1.5,21.3689119 C1.5,10.3990866 10.6748061,1.5 22,1.5 C33.3251939,1.5 42.5,10.3990866 42.5,21.3689119 C42.5,32.3387373 33.3251939,41.2378238 22,41.2378238 Z" id="Oval-2"></path>
            <path d="M17.8883929,18.5286408 L17.8883929,31.8009623 L13.46875,31.8009623 L13.46875,18.5286408 L17.8883929,18.5286408 Z M18.1696429,14.4304265 C18.1785715,15.0822155 17.9531273,15.6268529 17.4933036,16.0643551 C17.0334798,16.5018573 16.4285752,16.7206051 15.6785714,16.7206051 L15.6517857,16.7206051 C14.9196392,16.7206051 14.3303594,16.5018573 13.8839286,16.0643551 C13.4374978,15.6268529 13.2142857,15.0822155 13.2142857,14.4304265 C13.2142857,13.7697089 13.4441941,13.2228394 13.9040179,12.7898015 C14.3638416,12.3567637 14.964282,12.140248 15.7053571,12.140248 C16.4464323,12.140248 17.0401763,12.3567637 17.4866071,12.7898015 C17.9330379,13.2228394 18.1607142,13.7697089 18.1696429,14.4304265 Z M24.7321429,20.4146757 C24.9022211,20.1466171 25.0763267,19.9107981 25.2544643,19.7072123 C25.4419652,19.4929255 25.6941948,19.2607849 26.0111607,19.0107837 C26.3281266,18.7607824 26.7165156,18.5665879 27.1763393,18.4281944 C27.636163,18.2898008 28.1473186,18.2206051 28.7098214,18.2206051 C30.2366148,18.2206051 31.4642811,18.7272965 32.3928571,19.7406944 C33.3214332,20.7540923 33.7857143,22.2384525 33.7857143,24.1938194 L33.7857143,31.8009623 L29.3794643,31.8009623 L29.3794643,24.702748 C29.3794643,23.7652433 29.1986625,23.0308756 28.8370536,22.499623 C28.4754446,21.9683703 27.9107181,21.702748 27.1428571,21.702748 C26.5803543,21.702748 26.1093769,21.8567643 25.7299107,22.1648015 C25.3504445,22.4728388 25.0669652,22.8545314 24.8794643,23.3098908 C24.7812495,23.5777493 24.7321429,23.9393528 24.7321429,24.3947123 L24.7321429,31.8009623 L20.3258929,31.8009623 C20.3437501,28.2384444 20.3526786,25.3500805 20.3526786,23.1357837 C20.3526786,20.9214869 20.3482143,19.6000715 20.3392857,19.171498 L20.3258929,18.5286408 L24.7321429,18.5286408 L24.7321429,20.4146757 L24.7321429,20.4146757 Z" id="" opacity="0.74"></path>
        </g>
    </g>
</svg>