<?xml version="1.0" encoding="UTF-8"?>
<svg width="17px" height="13px" viewBox="0 0 17 13" version="1.1" xmlns="http://www.w3.org/2000/svg" xmlns:xlink="http://www.w3.org/1999/xlink">
    <!-- Generator: Sketch 41.2 (35397) - http://www.bohemiancoding.com/sketch -->
    <title>mail</title>
    <desc>Created with Sketch.</desc>
    <defs></defs>
    <g id="Welcome" stroke="none" stroke-width="1" fill="none" fill-rule="evenodd" opacity="0.74">
        <g id="mail" fill="#000000">
            <path d="M16.5,1.42857143 C16.5,1.89881187 16.3541681,2.34821214 16.0625,2.77678571 C15.7708319,3.20535929 15.4077403,3.57142705 14.9732143,3.875 C12.7351079,5.4285792 11.3422646,6.39583143 10.7946429,6.77678571 C10.7351187,6.81845259 10.6086319,6.90922549 10.4151786,7.04910714 C10.2217252,7.18898879 10.0610125,7.3020829 9.93303571,7.38839286 C9.80505888,7.47470281 9.65029853,7.57142804 9.46875,7.67857143 C9.28720147,7.78571482 9.11607223,7.86607116 8.95535714,7.91964286 C8.79464205,7.97321455 8.64583402,8 8.50892857,8 L8.49107143,8 C8.35416598,8 8.20535795,7.97321455 8.04464286,7.91964286 C7.88392777,7.86607116 7.71279853,7.78571482 7.53125,7.67857143 C7.34970147,7.57142804 7.19494112,7.47470281 7.06696429,7.38839286 C6.93898746,7.3020829 6.77827478,7.18898879 6.58482143,7.04910714 C6.39136808,6.90922549 6.26488125,6.81845259 6.20535714,6.77678571 C5.66368777,6.39583143 4.88393366,5.8526821 3.86607143,5.14732143 C2.8482092,4.44196076 2.23809625,4.01785786 2.03571429,3.875 C1.66666482,3.62499875 1.31845402,3.28125219 0.991071429,2.84375 C0.663688839,2.40624781 0.5,2.00000188 0.5,1.625 C0.5,1.16071196 0.62351067,0.773811071 0.870535714,0.464285714 C1.11756076,0.154760357 1.4702358,0 1.92857143,0 L15.0714286,0 C15.4583353,0 15.7931533,0.139879554 16.0758929,0.419642857 C16.3586324,0.699406161 16.5,1.03571232 16.5,1.42857143 Z" id="Path"></path>
            <path d="M16.5184946,3.75211148 L16.5184946,10.8413972 C16.5184946,11.2342563 16.378615,11.5705625 16.0988517,11.8503258 C15.8190884,12.1300891 15.4827823,12.2699686 15.0899232,12.2699686 L1.94706601,12.2699686 C1.55420691,12.2699686 1.21790074,12.1300891 0.938137441,11.8503258 C0.658374138,11.5705625 0.518494584,11.2342563 0.518494584,10.8413972 L0.518494584,3.75211148 C0.780400655,4.0437796 1.08099289,4.30270558 1.4202803,4.52889719 C3.57505298,5.99319023 5.05420485,7.01996567 5.8577803,7.60925433 C6.19706771,7.85925558 6.47236258,8.05419411 6.68367316,8.19407576 C6.89498374,8.33395741 7.17623092,8.47681313 7.52742316,8.62264719 C7.87861539,8.76848125 8.20599307,8.84139719 8.50956601,8.84139719 L8.52742316,8.84139719 C8.8309961,8.84139719 9.15837378,8.76848125 9.50956601,8.62264719 C9.86075824,8.47681313 10.1420054,8.33395741 10.353316,8.19407576 C10.5646266,8.05419411 10.8399215,7.85925558 11.1792089,7.60925433 C12.1911187,6.87710782 13.6732467,5.85033237 15.6256374,4.52889719 C15.9649249,4.29675317 16.2625409,4.03782719 16.5184946,3.75211148 Z" id="Path"></path>
        </g>
    </g>
</svg>