<?xml version="1.0" encoding="UTF-8"?>
<svg width="13px" height="13px" viewBox="0 0 13 13" version="1.1" xmlns="http://www.w3.org/2000/svg" xmlns:xlink="http://www.w3.org/1999/xlink">
    <!-- Generator: Sketch 41.2 (35397) - http://www.bohemiancoding.com/sketch -->
    <title>phone</title>
    <desc>Created with Sketch.</desc>
    <defs></defs>
    <g id="Welcome" stroke="none" stroke-width="1" fill="none" fill-rule="evenodd" opacity="0.74">
        <path d="M12.5714286,9.92857143 C12.5714286,10.0892865 12.541667,10.2991058 12.4821429,10.5580357 C12.4226187,10.8169656 12.3601194,11.0208326 12.2946429,11.1696429 C12.1696422,11.4672634 11.8065506,11.7827364 11.2053571,12.1160714 C10.6458305,12.4196444 10.0922646,12.5714286 9.54464286,12.5714286 C9.38392777,12.5714286 9.22767933,12.561012 9.07589286,12.5401786 C8.92410638,12.5193451 8.75297714,12.4821431 8.5625,12.4285714 C8.37202286,12.3749997 8.23065522,12.3318454 8.13839286,12.2991071 C8.04613049,12.2663689 7.88095357,12.2053576 7.64285714,12.1160714 C7.40476071,12.0267853 7.25892884,11.9732144 7.20535714,11.9553571 C6.62202089,11.7470228 6.10119277,11.5000014 5.64285714,11.2142857 C4.88094857,10.7440453 4.09375406,10.1026826 3.28125,9.29017857 C2.46874594,8.47767451 1.8273833,7.69048 1.35714286,6.92857143 C1.07142714,6.4702358 0.824405804,5.94940768 0.616071429,5.36607143 C0.598214196,5.31249973 0.544643304,5.16666786 0.455357143,4.92857143 C0.366070982,4.690475 0.305059688,4.52529808 0.272321429,4.43303571 C0.23958317,4.34077335 0.196428839,4.19940571 0.142857143,4.00892857 C0.0892854464,3.81845143 0.0520834375,3.64732219 0.03125,3.49553571 C0.0104165625,3.34374924 0,3.1875008 0,3.02678571 C0,2.47916393 0.151784196,1.92559804 0.455357143,1.36607143 C0.788692143,0.764877946 1.10416518,0.401786339 1.40178571,0.276785714 C1.55059598,0.211309196 1.75446299,0.148809821 2.01339286,0.0892857143 C2.27232272,0.0297616071 2.48214205,0 2.64285714,0 C2.72619089,0 2.78869027,0.00892848214 2.83035714,0.0267857143 C2.93750054,0.0625001786 3.09523705,0.288688393 3.30357143,0.705357143 C3.36904795,0.818452946 3.45833277,0.979165625 3.57142857,1.1875 C3.68452438,1.39583437 3.78869,1.58482058 3.88392857,1.75446429 C3.97916714,1.92410799 4.07142813,2.08333259 4.16071429,2.23214286 C4.17857152,2.2559525 4.23065433,2.33035652 4.31696429,2.45535714 C4.40327424,2.58035777 4.4672617,2.68601147 4.50892857,2.77232143 C4.55059545,2.85863138 4.57142857,2.94345196 4.57142857,3.02678571 C4.57142857,3.14583393 4.48660799,3.29464196 4.31696429,3.47321429 C4.14732058,3.65178661 3.96279862,3.81547545 3.76339286,3.96428571 C3.5639871,4.11309598 3.37946513,4.2708325 3.20982143,4.4375 C3.04017772,4.6041675 2.95535714,4.74107089 2.95535714,4.84821429 C2.95535714,4.90178598 2.97023795,4.9687496 3,5.04910714 C3.02976205,5.12946469 3.05505942,5.19047598 3.07589286,5.23214286 C3.09672629,5.27380973 3.13839254,5.34523759 3.20089286,5.44642857 C3.26339317,5.54761955 3.29761902,5.60416661 3.30357143,5.61607143 C3.75595464,6.4315517 4.27380661,7.13094946 4.85714286,7.71428571 C5.44047911,8.29762196 6.13987687,8.81547393 6.95535714,9.26785714 C6.96726196,9.27380955 7.02380902,9.3080354 7.125,9.37053571 C7.22619098,9.43303603 7.29761884,9.47470228 7.33928571,9.49553571 C7.38095259,9.51636915 7.44196388,9.54166652 7.52232143,9.57142857 C7.60267897,9.60119062 7.66964259,9.61607143 7.72321429,9.61607143 C7.83035768,9.61607143 7.96726107,9.53125085 8.13392857,9.36160714 C8.30059607,9.19196344 8.45833259,9.00744147 8.60714286,8.80803571 C8.75595313,8.60862996 8.91964196,8.42410799 9.09821429,8.25446429 C9.27678661,8.08482058 9.42559464,8 9.54464286,8 C9.62797661,8 9.71279719,8.02083312 9.79910714,8.0625 C9.8854171,8.10416688 9.9910708,8.16815433 10.1160714,8.25446429 C10.2410721,8.34077424 10.3154761,8.39285705 10.3392857,8.41071429 C10.488096,8.50000045 10.6473206,8.59226143 10.8169643,8.6875 C10.986608,8.78273857 11.1755942,8.8869042 11.3839286,9 C11.5922629,9.1130958 11.7529756,9.20238062 11.8660714,9.26785714 C12.2827402,9.47619152 12.5089284,9.63392804 12.5446429,9.74107143 C12.5625001,9.7827383 12.5714286,9.84523768 12.5714286,9.92857143 Z" id="phone" fill="#000000"></path>
    </g>
</svg>