<?xml version="1.0" encoding="UTF-8"?>
<svg width="44px" height="43px" viewBox="0 0 44 43" version="1.1" xmlns="http://www.w3.org/2000/svg" xmlns:xlink="http://www.w3.org/1999/xlink">
    <!-- Generator: Sketch 41.2 (35397) - http://www.bohemiancoding.com/sketch -->
    <title>twitter</title>
    <desc>Created with Sketch.</desc>
    <defs></defs>
    <g id="Welcome" stroke="none" stroke-width="1" fill="none" fill-rule="evenodd">
        <g id="twitter" fill="#000000">
            <path d="M22,42.2378238 C33.8707656,42.2378238 43.5,32.8979654 43.5,21.3689119 C43.5,9.83985841 33.8707656,0.5 22,0.5 C10.1292344,0.5 0.5,9.83985841 0.5,21.3689119 C0.5,32.8979654 10.1292344,42.2378238 22,42.2378238 Z M22,41.2378238 C10.6748061,41.2378238 1.5,32.3387373 1.5,21.3689119 C1.5,10.3990866 10.6748061,1.5 22,1.5 C33.3251939,1.5 42.5,10.3990866 42.5,21.3689119 C42.5,32.3387373 33.3251939,41.2378238 22,41.2378238 Z" id="Oval-2"></path>
            <path d="M34.0535714,15.6223908 C33.4553542,16.4973952 32.7321471,17.2429235 31.8839286,17.858998 C31.8928572,17.9839986 31.8973214,18.1714967 31.8973214,18.421498 C31.8973214,19.5822181 31.7276803,20.7406886 31.3883929,21.8969444 C31.0491054,23.0532002 30.5334856,24.1625641 29.8415179,25.2250694 C29.1495501,26.2875747 28.3258976,27.2272975 27.3705357,28.0442658 C26.4151738,28.8612342 25.2633996,29.5130134 23.9151786,29.999623 C22.5669575,30.4862325 21.1250077,30.7295337 19.5892857,30.7295337 C17.1696308,30.7295337 14.9553672,30.0822187 12.9464286,28.7875694 C13.2589301,28.8232839 13.6071409,28.8411408 13.9910714,28.8411408 C16.00001,28.8411408 17.7901707,28.2250756 19.3616071,26.9929265 C18.4241025,26.9750693 17.5848251,26.6871258 16.84375,26.1290873 C16.1026749,25.5710487 15.5937514,24.8590023 15.3169643,23.9929265 C15.6116086,24.0375696 15.8839273,24.0598908 16.1339286,24.0598908 C16.5178591,24.0598908 16.8973196,24.0107842 17.2723214,23.9125694 C16.2723164,23.7072112 15.4441997,23.2094483 14.7879464,22.4192658 C14.1316931,21.6290833 13.8035714,20.7116818 13.8035714,19.6670337 L13.8035714,19.6134623 C14.4107173,19.9527497 15.0624965,20.1357835 15.7589286,20.1625694 C15.1696399,19.7697103 14.7008946,19.2563226 14.3526786,18.6223908 C14.0044625,17.9884591 13.8303571,17.300966 13.8303571,16.5598908 C13.8303571,15.7741726 14.0267837,15.0465013 14.4196429,14.3768551 C15.5000054,15.7072189 16.8147244,16.7719404 18.3638393,17.5710515 C19.9129542,18.3701627 21.5714197,18.8143547 23.3392857,18.9036408 C23.2678568,18.5643534 23.2321429,18.2339996 23.2321429,17.9125694 C23.2321429,16.7161348 23.6540136,15.6960558 24.4977679,14.8523015 C25.3415221,14.0085473 26.3616012,13.5866765 27.5580357,13.5866765 C28.808042,13.5866765 29.8616029,14.0420291 30.71875,14.952748 C31.6919692,14.765247 32.6071386,14.4170362 33.4642857,13.9081051 C33.1339269,14.934896 32.5000047,15.7295309 31.5625,16.2920337 C32.3928613,16.2027475 33.2232101,15.9795355 34.0535714,15.6223908 Z" id="" opacity="0.74"></path>
        </g>
    </g>
</svg>