<?xml version="1.0" encoding="UTF-8"?>
<svg width="6px" height="11px" viewBox="0 0 6 11" version="1.1" xmlns="http://www.w3.org/2000/svg" xmlns:xlink="http://www.w3.org/1999/xlink">
    <!-- Generator: Sketch 41.2 (35397) - http://www.bohemiancoding.com/sketch -->
    <title>expand-bolt-reverse</title>
    <desc>Created with Sketch.</desc>
    <defs></defs>
    <g id="Symbols" stroke="none" stroke-width="1" fill="none" fill-rule="evenodd">
        <g id="Global-Footer" transform="translate(-944.000000, -758.000000)" fill="#FFFFFF">
            <g id="expand-bolt-reverse" transform="translate(944.000000, 758.000000)">
                <path d="M5.2,3.3 L4.03333333,3.3 L4.96666667,1.29411765 C4.96666667,1.29411765 5.03333333,1.19705882 5.03333333,1.00294118 C5.03333333,0.808823529 4.9,0.55 4.73333333,0.485294118 C4.6,0.355882353 4.53333333,0.323529412 4.36666667,0.323529412 C4.2,0.323529412 2.03333333,0.291176471 1.83333333,0.323529412 C1.66666667,0.355882353 1.5,0.55 1.43333333,0.744117647 L0.0333333333,5.53235294 C0,5.59705882 0,5.69411765 0,5.79117647 C0,6.14705882 0.3,6.47058824 0.666666667,6.47058824 L1.8,6.47058824 L0.6,9.9 L0.566666667,10.0294118 C0.533333333,10.2558824 0.6,10.45 0.733333333,10.6117647 C0.866666667,10.7411765 1.16666667,10.9029412 1.46666667,10.7088235 C2.36666667,10.1588235 5.66666667,4.27058824 5.66666667,4.27058824 C5.73333333,4.17352941 5.8,4.04411765 5.8,3.91470588 C5.8,3.59117647 5.53333333,3.3 5.2,3.3 Z" id="Shape"></path>
            </g>
        </g>
    </g>
</svg>