<?xml version="1.0" encoding="UTF-8"?>
<svg width="367px" height="222px" viewBox="0 0 367 222" version="1.1" xmlns="http://www.w3.org/2000/svg" xmlns:xlink="http://www.w3.org/1999/xlink">
    <!-- Generator: Sketch 41.2 (35397) - http://www.bohemiancoding.com/sketch -->
    <title>Head Logo</title>
    <desc>Created with Sketch.</desc>
    <defs>
        <filter x="-50%" y="-50%" width="200%" height="200%" filterUnits="objectBoundingBox" id="filter-1">
            <feOffset dx="0" dy="0" in="SourceAlpha" result="shadowOffsetOuter1"></feOffset>
            <feGaussianBlur stdDeviation="5.5" in="shadowOffsetOuter1" result="shadowBlurOuter1"></feGaussianBlur>
            <feColorMatrix values="0 0 0 0 0   0 0 0 0 0   0 0 0 0 0  0 0 0 0.132416214 0" type="matrix" in="shadowBlurOuter1" result="shadowMatrixOuter1"></feColorMatrix>
            <feMerge>
                <feMergeNode in="shadowMatrixOuter1"></feMergeNode>
                <feMergeNode in="SourceGraphic"></feMergeNode>
            </feMerge>
        </filter>
        <polygon id="path-2" points="0 174.735098 314.49347 174.735098 314.49347 0.183006582 0 0.183006582"></polygon>
    </defs>
    <g id="Symbols" stroke="none" stroke-width="1" fill="none" fill-rule="evenodd">
        <g id="Colour-Logo" transform="translate(10.000000, 11.000000)">
            <g id="Head-Logo" filter="url(#filter-1)">
                <polygon id="Fill-1" fill="#FFFFFF" opacity="0.781476449" points="1.61526701 0.310373888 1.61526701 170.175211 0.67510731 170.19889 173.000052 200.193216 345.324996 170.19889 345.324996 0.310373888"></polygon>
                <g id="Group-60" transform="translate(15.753265, 12.792639)">
                    <path d="M82.7440569,57.7134004 C82.7440569,57.7134004 125.01301,32.6306423 139.264205,45.6075667 C139.264205,45.6075667 119.367595,39.2354222 82.7440569,57.7134004 Z" id="Fill-2" fill="#72BE44"></path>
                    <path d="M220.301902,8.43386352 C220.301902,8.43386352 153.513801,58.4970201 139.260544,45.5200957 C139.260544,45.5200957 154.583594,51.6332393 220.301902,8.43386352" id="Fill-4" fill="#72BE44"></path>
                    <path d="M84.2944581,56.8265422 C84.2944581,56.8265422 126.289648,36.7232175 139.797916,50.4543978 C139.797916,50.4543978 121.887255,40.3637043 84.2944581,56.8265422" id="Fill-6" fill="#D4B600"></path>
                    <path d="M232.780539,11.0254745 C232.780539,11.0254745 158.146599,67.6980638 139.799772,50.36672 C139.799772,50.36672 160.360942,61.4975526 232.780539,11.0254745" id="Fill-8" fill="#D4B600"></path>
                    <mask id="mask-3" fill="white">
                        <use xlink:href="#path-2"></use>
                    </mask>
                    <g id="Clip-11"></g>
                    <polygon id="Fill-10" fill="#005AA9" mask="url(#mask-3)" points="40.1102909 90.2796285 42.8195749 90.2796285 42.8195749 60.0809576 40.1102909 60.0809576"></polygon>
                    <path d="M60.6291338,90.2795251 L60.6291338,74.4851265 C60.6291338,73.9655739 60.5311769,73.4775564 60.3352629,73.0221078 C60.1393489,72.5651083 59.8733184,72.168594 59.5371713,71.832048 C59.2010241,71.4949851 58.8050717,71.2282297 58.3508606,71.031782 C57.8951029,70.8348173 57.4089269,70.7365934 56.890786,70.7365934 L55.1688054,70.7365934 C54.6506645,70.7365934 54.163973,70.8348173 53.7087308,71.031782 C53.2540042,71.2282297 52.8585673,71.4949851 52.5224202,71.832048 C52.1862731,72.168594 51.9202425,72.5651083 51.7243286,73.0221078 C51.5284146,73.4775564 51.4304576,73.9655739 51.4304576,74.4851265 L51.4304576,90.2795251 L48.8469711,90.2795251 L48.8469711,68.7152495 L49.708477,68.7152495 L51.1154486,70.9051249 C51.703706,70.1048588 52.4414768,69.4700224 53.3308231,68.9990648 C54.2196538,68.5291411 55.1899435,68.2939208 56.2396299,68.2939208 L56.890786,68.2939208 C57.7589942,68.2939208 58.578224,68.4593505 59.3479596,68.7886589 C60.1182108,69.1190013 60.7899895,69.5713481 61.3643268,70.1472501 C61.9381485,70.7226353 62.3892661,71.3967612 62.7192265,72.168594 C63.0476402,72.9409439 63.2126204,73.7629226 63.2126204,74.6319454 L63.2126204,90.2795251 L60.6291338,90.2795251 Z" id="Fill-12" fill="#005AA9" mask="url(#mask-3)"></path>
                    <path d="M80.1608281,74.4852299 C80.1608281,73.9656773 80.0628711,73.4776598 79.8669572,73.0216942 C79.6705276,72.5652117 79.4044971,72.1686974 79.0688656,71.8316345 C78.7327184,71.4950885 78.336766,71.2283331 77.8825549,71.0313684 C77.4267972,70.8349206 76.9406212,70.7366968 76.4224803,70.7366968 L74.7004997,70.7366968 C74.1823588,70.7366968 73.6956673,70.8349206 73.2404251,71.0313684 C72.7856985,71.2283331 72.3902616,71.4950885 72.0541145,71.8316345 C71.7179674,72.1686974 71.4519368,72.5652117 71.2560229,73.0216942 C71.0601089,73.4776598 70.9621519,73.9656773 70.9621519,74.4852299 L70.9621519,84.5092345 C70.9621519,85.0287871 71.0601089,85.5168047 71.2560229,85.9727702 C71.4519368,86.4292527 71.7179674,86.825767 72.0541145,87.16283 C72.3902616,87.4998929 72.7856985,87.7666483 73.2404251,87.963096 C73.6956673,88.1595438 74.1823588,88.2577676 74.7004997,88.2577676 L76.4224803,88.2577676 C76.9406212,88.2577676 77.4267972,88.1595438 77.8825549,87.963096 C78.336766,87.7666483 78.7327184,87.4998929 79.0688656,87.16283 C79.4044971,86.825767 79.6705276,86.4292527 79.8669572,85.9727702 C80.0628711,85.5168047 80.1608281,85.0287871 80.1608281,84.5092345 L80.1608281,74.4852299 Z M81.8828088,90.2796285 L80.4546991,88.0892362 C79.8669572,88.8895022 79.1317642,89.5243386 78.2496358,89.9952962 C77.3675074,90.4652199 76.4013422,90.7004402 75.3511403,90.7004402 L74.7004997,90.7004402 C73.8322915,90.7004402 73.0130618,90.5355275 72.2433261,90.2062191 C71.4730749,89.8753597 70.8012962,89.4230129 70.226959,88.8476278 C69.6531373,88.2717258 69.2009885,87.5981168 68.8720592,86.825767 C68.54313,86.0539341 68.3786654,85.2329894 68.3786654,84.3624157 L68.3786654,74.6320487 C68.3786654,73.762509 68.54313,72.9410472 68.8720592,72.1686974 C69.2009885,71.3968646 69.6531373,70.7227386 70.226959,70.1473535 C70.8012962,69.5714515 71.4730749,69.1191047 72.2433261,68.7887623 C73.0130618,68.4589369 73.8322915,68.2940242 74.7004997,68.2940242 L75.3511403,68.2940242 C76.3173055,68.2940242 77.2133541,68.4904719 78.0398017,68.8833674 C78.8657337,69.2767799 79.5725707,69.8242487 80.1608281,70.5262909 L80.1608281,60.0809576 L82.7437991,60.0809576 L82.7437991,90.2796285 L81.8828088,90.2796285 Z" id="Fill-13" fill="#005AA9" mask="url(#mask-3)"></path>
                    <path d="M99.6923677,74.4852299 C99.6923677,73.9656773 99.5944108,73.4776598 99.3984968,73.0216942 C99.2025828,72.5652117 98.9365523,72.1686974 98.6004052,71.8316345 C98.2642581,71.4950885 97.8683056,71.2283331 97.4140946,71.0313684 C96.9583368,70.8349206 96.4721608,70.7366968 95.95402,70.7366968 L94.2320393,70.7366968 C93.7138984,70.7366968 93.2272069,70.8349206 92.7719647,71.0313684 C92.3172381,71.2283331 91.9218012,71.4950885 91.5856541,71.8316345 C91.249507,72.1686974 90.9834764,72.5652117 90.7875625,73.0216942 C90.5916485,73.4776598 90.4936915,73.9656773 90.4936915,74.4852299 L90.4936915,77.6862942 L99.6923677,77.6862942 L99.6923677,74.4852299 Z M101.78246,86.825767 C101.4525,87.5981168 101.001382,88.2717258 100.427561,88.8476278 C99.8532234,89.4230129 99.1814447,89.8753597 98.4111935,90.2062191 C97.6414579,90.5355275 96.8222282,90.7004402 95.95402,90.7004402 L94.2320393,90.7004402 C93.3638311,90.7004402 92.5446014,90.5355275 91.7748657,90.2062191 C91.0046145,89.8753597 90.3328359,89.4230129 89.7584986,88.8476278 C89.1846769,88.2717258 88.7325281,87.5981168 88.4035989,86.825767 C88.0746696,86.0539341 87.910205,85.2329894 87.910205,84.3624157 L87.910205,74.6320487 C87.910205,73.762509 88.0746696,72.9410472 88.4035989,72.1686974 C88.7325281,71.3968646 89.1846769,70.7227386 89.7584986,70.1473535 C90.3328359,69.5714515 91.0046145,69.1191047 91.7748657,68.7887623 C92.5446014,68.4589369 93.3638311,68.2940242 94.2320393,68.2940242 L95.95402,68.2940242 C96.8222282,68.2940242 97.6414579,68.4589369 98.4111935,68.7887623 C99.1814447,69.1191047 99.8532234,69.5714515 100.427561,70.1473535 C101.001382,70.7227386 101.4525,71.3968646 101.78246,72.1686974 C102.110874,72.9410472 102.275339,73.762509 102.275339,74.6320487 L102.275339,79.7081551 L90.4936915,79.7081551 L90.4936915,84.5092345 C90.4936915,85.0287871 90.5916485,85.5168047 90.7875625,85.9727702 C90.9834764,86.4292527 91.249507,86.825767 91.5856541,87.16283 C91.9218012,87.4998929 92.3172381,87.7666483 92.7719647,87.963096 C93.2272069,88.1595438 93.7138984,88.2577676 94.2320393,88.2577676 L95.95402,88.2577676 C96.4721608,88.2577676 96.9583368,88.1595438 97.4140946,87.963096 C97.8683056,87.7666483 98.2642581,87.4998929 98.6004052,87.16283 C98.9365523,86.825767 99.2025828,86.4292527 99.3984968,85.9727702 C99.5944108,85.5168047 99.6923677,85.0287871 99.6923677,84.5092345 L99.6923677,83.0772339 L102.275339,83.4985626 L102.275339,84.3624157 C102.275339,85.2329894 102.110874,86.0539341 101.78246,86.825767 L101.78246,86.825767 Z" id="Fill-14" fill="#005AA9" mask="url(#mask-3)"></path>
                    <polygon id="Fill-15" fill="#005AA9" mask="url(#mask-3)" points="118.573061 90.2795251 113.973722 82.0039054 109.374384 90.2795251 106.581064 90.2795251 112.608511 79.4971288 106.581064 68.7152495 109.374384 68.7152495 113.973722 76.9908692 118.573061 68.7152495 121.366381 68.7152495 115.359556 79.4971288 121.366381 90.2795251"></polygon>
                    <path d="M152.354557,86.1724748 C151.968916,87.0719987 151.440979,87.8572727 150.768685,88.5308817 C150.096906,89.2050076 149.312735,89.7354166 148.416686,90.1221084 C147.520638,90.5072494 146.561175,90.7005953 145.539329,90.7005953 L143.397164,90.7005953 C142.374803,90.7005953 141.412247,90.5072494 140.509496,90.1221084 C139.606229,89.7354166 138.818449,89.2050076 138.14667,88.5308817 C137.474376,87.8572727 136.945924,87.0719987 136.561314,86.1724748 C136.175673,85.2750188 135.983367,84.3129419 135.983367,83.2877948 L135.983367,67.0725845 C135.983367,66.0479544 136.175673,65.0863944 136.561314,64.1868705 C136.945924,63.2894145 137.474376,62.5020726 138.14667,61.8284637 C138.818449,61.1543377 139.606229,60.6249627 140.509496,60.2387878 C141.412247,59.8531299 142.374803,59.659784 143.397164,59.659784 L145.539329,59.659784 C146.561175,59.659784 147.520638,59.8531299 148.416686,60.2387878 C149.312735,60.6249627 150.096906,61.1543377 150.768685,61.8284637 C151.440979,62.5020726 151.968916,63.2894145 152.354557,64.1868705 C152.739167,65.0863944 152.931988,66.0479544 152.931988,67.0725845 L152.931988,68.2941793 L150.222704,68.714991 L150.222704,67.0725845 C150.222704,66.3984585 150.096906,65.7703427 149.844796,65.188237 C149.592686,64.6050974 149.249321,64.0964012 148.815732,63.6611143 C148.381628,63.2258275 147.873798,62.8820439 147.292759,62.6297637 C146.711719,62.3769664 146.08531,62.2492754 145.413016,62.2492754 L143.522962,62.2492754 C142.851183,62.2492754 142.224258,62.3769664 141.643734,62.6297637 C141.062179,62.8820439 140.551772,63.2258275 140.109934,63.6611143 C139.669643,64.0964012 139.322669,64.6050974 139.070559,65.188237 C138.818449,65.7703427 138.692651,66.3984585 138.692651,67.0725845 L138.692651,83.2877948 C138.692651,83.9619208 138.818449,84.5905535 139.070559,85.1726592 C139.322669,85.7557988 139.669643,86.2675969 140.109934,86.7101213 C140.551772,87.1521287 141.062179,87.4995311 141.643734,87.7523283 C142.224258,88.0051255 142.851183,88.1312656 143.522962,88.1312656 L145.413016,88.1312656 C146.08531,88.1312656 146.711719,88.0051255 147.292759,87.7523283 C147.873798,87.4995311 148.381628,87.1521287 148.815732,86.7101213 C149.249321,86.2675969 149.592686,85.7557988 149.844796,85.1726592 C150.096906,84.5905535 150.222704,83.9619208 150.222704,83.2877948 L150.222704,81.6453883 L152.931988,82.0879127 L152.931988,83.2877948 C152.931988,84.3129419 152.739167,85.2750188 152.354557,86.1724748" id="Fill-16" fill="#005AA9" mask="url(#mask-3)"></path>
                    <path d="M169.880247,74.4852299 C169.880247,73.9656773 169.78229,73.4776598 169.586376,73.0216942 C169.390462,72.5652117 169.124432,72.1686974 168.788284,71.8316345 C168.452137,71.4950885 168.056185,71.2283331 167.601974,71.0313684 C167.146216,70.8349206 166.66004,70.7366968 166.141899,70.7366968 L164.419919,70.7366968 C163.901778,70.7366968 163.415086,70.8349206 162.959844,71.0313684 C162.504602,71.2283331 162.109681,71.4950885 161.773533,71.8316345 C161.437386,72.1686974 161.171356,72.5652117 160.975442,73.0216942 C160.779528,73.4776598 160.681571,73.9656773 160.681571,74.4852299 L160.681571,84.5092345 C160.681571,85.0287871 160.779528,85.5168047 160.975442,85.9727702 C161.171356,86.4292527 161.437386,86.825767 161.773533,87.16283 C162.109681,87.4998929 162.504602,87.7666483 162.959844,87.963096 C163.415086,88.1595438 163.901778,88.2577676 164.419919,88.2577676 L166.141899,88.2577676 C166.66004,88.2577676 167.146216,88.1595438 167.601974,87.963096 C168.056185,87.7666483 168.452137,87.4998929 168.788284,87.16283 C169.124432,86.825767 169.390462,86.4292527 169.586376,85.9727702 C169.78229,85.5168047 169.880247,85.0287871 169.880247,84.5092345 L169.880247,74.4852299 Z M171.97034,86.825767 C171.640895,87.5981168 171.189262,88.2717258 170.61544,88.8476278 C170.041103,89.4230129 169.369324,89.8753597 168.599073,90.2062191 C167.829337,90.5355275 167.010107,90.7004402 166.141899,90.7004402 L164.419919,90.7004402 C163.55171,90.7004402 162.732481,90.5355275 161.962745,90.2062191 C161.192494,89.8753597 160.520715,89.4230129 159.946378,88.8476278 C159.372556,88.2717258 158.920407,87.5981168 158.591478,86.825767 C158.262549,86.0539341 158.098084,85.2329894 158.098084,84.3624157 L158.098084,74.6320487 C158.098084,73.762509 158.262549,72.9410472 158.591478,72.1686974 C158.920407,71.3968646 159.372556,70.7227386 159.946378,70.1473535 C160.520715,69.5714515 161.192494,69.1191047 161.962745,68.7887623 C162.732481,68.4589369 163.55171,68.2940242 164.419919,68.2940242 L166.141899,68.2940242 C167.010107,68.2940242 167.829337,68.4589369 168.599073,68.7887623 C169.369324,69.1191047 170.041103,69.5714515 170.61544,70.1473535 C171.189262,70.7227386 171.640895,71.3968646 171.97034,72.1686974 C172.298753,72.9410472 172.463218,73.762509 172.463218,74.6320487 L172.463218,84.3624157 C172.463218,85.2329894 172.298753,86.0539341 171.97034,86.825767 L171.97034,86.825767 Z" id="Fill-17" fill="#005AA9" mask="url(#mask-3)"></path>
                    <path d="M189.412508,79.8342952 L183.951664,79.8342952 C183.433524,79.8342952 182.946832,79.9325191 182.49159,80.1289668 C182.036348,80.3254145 181.641426,80.5957887 181.305279,80.9400892 C180.969132,81.2833558 180.703102,81.6840058 180.507188,82.1399713 C180.311274,82.5969708 180.213317,83.0849884 180.213317,83.604541 L180.213317,84.5092345 C180.213317,85.0287871 180.311274,85.5168047 180.507188,85.9727702 C180.703102,86.4292527 180.969132,86.825767 181.305279,87.16283 C181.641426,87.4998929 182.036348,87.7666483 182.49159,87.963096 C182.946832,88.1595438 183.433524,88.2577676 183.951664,88.2577676 L185.67313,88.2577676 C186.192302,88.2577676 186.677962,88.1595438 187.13372,87.963096 C187.587931,87.7666483 187.984399,87.4998929 188.320546,87.16283 C188.656693,86.825767 188.921177,86.4292527 189.117606,85.9727702 C189.31352,85.5168047 189.412508,85.0287871 189.412508,84.5092345 L189.412508,79.8342952 Z M191.133458,90.2796285 L189.705348,88.1316275 C189.117606,88.9034604 188.382929,89.5243386 187.500801,89.9952962 C186.618672,90.4652199 185.652507,90.7004402 184.602821,90.7004402 L183.951664,90.7004402 C183.083456,90.7004402 182.264227,90.5355275 181.494491,90.2062191 C180.72424,89.8753597 180.051945,89.4230129 179.478124,88.8476278 C178.904302,88.2717258 178.452153,87.5981168 178.123224,86.825767 C177.794295,86.0539341 177.62983,85.2329894 177.62983,84.3624157 L177.62983,84.1509759 C177.62983,83.2814361 177.794295,82.4594574 178.123224,81.6876246 C178.452153,80.9152747 178.904302,80.2411488 179.478124,79.6657637 C180.051945,79.0903786 180.72424,78.6375148 181.494491,78.3071725 C182.264227,77.977864 183.083456,77.8124343 183.951664,77.8124343 L189.412508,77.8124343 L189.412508,74.4852299 C189.412508,73.9656773 189.31352,73.4776598 189.117606,73.0216942 C188.921177,72.5652117 188.656693,72.1686974 188.320546,71.8316345 C187.984399,71.4950885 187.587931,71.2283331 187.13372,71.0313684 C186.677962,70.8349206 186.192302,70.7366968 185.67313,70.7366968 L184.161499,70.7366968 C183.643358,70.7366968 183.156666,70.8349206 182.701424,71.0313684 C182.246697,71.2283331 181.851261,71.4950885 181.515113,71.8316345 C181.179482,72.1686974 180.913451,72.5652117 180.717022,73.0216942 C180.521108,73.4776598 180.423151,73.9656773 180.423151,74.4852299 L180.423151,75.2648173 L177.84018,74.8440055 L177.84018,74.6320487 C177.84018,73.762509 178.004129,72.9410472 178.333058,72.1686974 C178.661987,71.3968646 179.114136,70.7227386 179.687958,70.1473535 C180.262295,69.5714515 180.934074,69.1191047 181.704325,68.7887623 C182.474576,68.4589369 183.29329,68.2940242 184.161499,68.2940242 L185.67313,68.2940242 C186.541338,68.2940242 187.360567,68.4589369 188.130819,68.7887623 C188.90107,69.1191047 189.572849,69.5714515 190.147186,70.1473535 C190.721008,70.7227386 191.172125,71.3968646 191.502086,72.1686974 C191.830499,72.9410472 191.994964,73.762509 191.994964,74.6320487 L191.994964,90.2796285 L191.133458,90.2796285 Z" id="Fill-18" fill="#005AA9" mask="url(#mask-3)"></path>
                    <path d="M204.994732,90.2795251 C204.21056,90.2795251 203.47279,90.1316723 202.779357,89.8375177 C202.086956,89.5418121 201.483747,89.1359925 200.97334,88.6154059 C200.462417,88.0968873 200.055638,87.493069 199.755064,86.8055019 C199.454491,86.1174178 199.303947,85.3797048 199.303947,84.5933969 L199.303947,71.1786008 L195.439286,71.1786008 L195.439286,68.7152495 L199.303947,68.7152495 L199.303947,63.5347157 L201.886402,63.113387 L201.886402,68.7152495 L207.346731,68.7152495 L207.346731,71.1786008 L201.886402,71.1786008 L201.886402,84.720054 C201.886402,85.1553408 201.967346,85.5590926 202.128717,85.9302755 C202.289057,86.3030092 202.510233,86.6292158 202.790184,86.9099293 C203.070135,87.1906428 203.398549,87.412422 203.777487,87.573199 C204.15488,87.7350099 204.561659,87.8161738 204.994732,87.8161738 L207.346731,87.8161738 L207.346731,90.2795251 L204.994732,90.2795251 Z" id="Fill-19" fill="#005AA9" mask="url(#mask-3)"></path>
                    <path d="M212.954871,90.2796285 L215.538873,90.2796285 L215.538873,68.7153529 L212.954871,68.7153529 L212.954871,90.2796285 Z M212.745037,63.5348191 L215.747676,63.5348191 L215.747676,60.0809576 L212.745037,60.0809576 L212.745037,63.5348191 Z" id="Fill-20" fill="#005AA9" mask="url(#mask-3)"></path>
                    <path d="M233.348174,90.2795251 L233.348174,74.4851265 C233.348174,73.9655739 233.249186,73.4775564 233.053272,73.0221078 C232.856843,72.5651083 232.591843,72.168594 232.256212,71.832048 C231.920065,71.4949851 231.523597,71.2282297 231.069385,71.031782 C230.613628,70.8348173 230.127967,70.7365934 229.608795,70.7365934 L227.887846,70.7365934 C227.368674,70.7365934 226.881982,70.8348173 226.427256,71.031782 C225.972529,71.2282297 225.576577,71.4949851 225.240429,71.832048 C224.904282,72.168594 224.639283,72.5651083 224.443369,73.0221078 C224.247455,73.4775564 224.148467,73.9655739 224.148467,74.4851265 L224.148467,90.2795251 L221.565496,90.2795251 L221.565496,68.7152495 L222.427002,68.7152495 L223.833973,70.9051249 C224.421715,70.1048588 225.160517,69.4700224 226.049348,68.9990648 C226.937663,68.5291411 227.907953,68.2939208 228.958155,68.2939208 L229.608795,68.2939208 C230.477004,68.2939208 231.296233,68.4593505 232.066484,68.7886589 C232.836736,69.1190013 233.508514,69.5713481 234.082852,70.1472501 C234.656673,70.7226353 235.107791,71.3967612 235.437751,72.168594 C235.766165,72.9409439 235.93063,73.7629226 235.93063,74.6319454 L235.93063,90.2795251 L233.348174,90.2795251 Z" id="Fill-21" fill="#005AA9" mask="url(#mask-3)"></path>
                    <path d="M253.214778,92.7860949 C253.214778,92.2655084 253.117852,91.7992035 252.921938,91.3856293 C252.726024,90.9705042 252.458447,90.6231019 252.122816,90.3434223 C251.786669,90.0627088 251.391232,89.8440315 250.937021,89.6899751 C250.481263,89.5354017 249.994571,89.4578566 249.477462,89.4578566 L248.154011,89.4578566 C247.63587,89.4578566 247.149179,89.5354017 246.694452,89.6899751 C246.23921,89.8440315 245.843773,90.0627088 245.507626,90.3434223 C245.171479,90.6231019 244.905448,90.9705042 244.709534,91.3856293 C244.51362,91.7992035 244.415663,92.2655084 244.415663,92.7860949 L244.415663,93.1231579 C244.415663,93.6411596 244.51362,94.1048796 244.709534,94.5117333 C244.905448,94.9191038 245.171479,95.2665062 245.507626,95.5549742 C245.843773,95.8424082 246.23921,96.0636704 246.694452,96.2182438 C247.149179,96.3723002 247.63587,96.4493284 248.154011,96.4493284 L249.477462,96.4493284 C249.994571,96.4493284 250.481263,96.3723002 250.937021,96.2182438 C251.391232,96.0636704 251.786669,95.8424082 252.122816,95.5549742 C252.458447,95.2665062 252.726024,94.9191038 252.921938,94.5117333 C253.117852,94.1048796 253.214778,93.6411596 253.214778,93.1231579 L253.214778,92.7860949 Z M253.320469,74.4854367 C253.320469,73.9658841 253.222512,73.4778666 253.026082,73.021901 C252.830168,72.5649015 252.560013,72.1689042 252.217679,71.8318412 C251.87483,71.4947783 251.475268,71.2280229 251.021057,71.0315752 C250.5653,70.8351274 250.078608,70.7369036 249.561498,70.7369036 L247.418303,70.7369036 C246.901193,70.7369036 246.414501,70.8351274 245.958744,71.0315752 C245.503502,71.2280229 245.109096,71.4947783 244.772949,71.8318412 C244.437317,72.1689042 244.16974,72.5649015 243.973826,73.021901 C243.777912,73.4778666 243.680986,73.9658841 243.680986,74.4854367 L243.680986,76.4013192 C243.680986,76.9219057 243.777912,77.4088893 243.973826,77.8653718 C244.16974,78.3213374 244.437317,78.7188856 244.772949,79.0554316 C245.109096,79.3924945 245.503502,79.6592499 245.958744,79.8546637 C246.414501,80.0521454 246.901193,80.1508862 247.418303,80.1508862 L249.561498,80.1508862 C250.078608,80.1508862 250.5653,80.0521454 251.021057,79.8546637 C251.475268,79.6592499 251.87483,79.3924945 252.217679,79.0554316 C252.560013,78.7188856 252.830168,78.3213374 253.026082,77.8653718 C253.222512,77.4088893 253.320469,76.9219057 253.320469,76.4013192 L253.320469,74.4854367 Z M255.179074,95.397299 C254.849629,96.1262235 254.398511,96.7517545 253.824174,97.2713071 C253.250352,97.7903427 252.578058,98.1946115 251.808322,98.4815286 C251.038071,98.7699966 250.218326,98.9137136 249.350633,98.9137136 L248.279809,98.9137136 C247.4116,98.9137136 246.593402,98.7699966 245.822119,98.4815286 C245.053415,98.1946115 244.381121,97.7903427 243.805752,97.2713071 C243.232962,96.7517545 242.780813,96.1262235 242.452399,95.397299 C242.122439,94.6663066 241.957974,93.8660405 241.957974,92.9954669 L241.957974,92.9112011 C241.957974,92.0690607 242.113159,91.2967108 242.42095,90.5957026 C242.728741,89.8941773 243.148925,89.2826045 243.680986,88.7630519 C243.009207,88.3561983 242.472506,87.8056277 242.073976,87.1097891 C241.674415,86.4155014 241.475407,85.6462534 241.475407,84.8041129 C241.475407,84.0462382 241.636779,83.3405772 241.957974,82.687647 C242.280717,82.0352337 242.721523,81.5048248 243.281425,81.0979711 C242.60913,80.5081109 242.077069,79.7998651 241.685241,78.9711658 C241.293414,78.1429835 241.0975,77.236739 241.0975,76.2539834 L241.0975,74.6322555 C241.0975,73.7627158 241.261964,72.9407371 241.590378,72.1689042 C241.919307,71.3965544 242.371456,70.7229454 242.945278,70.1470434 C243.519615,69.5716583 244.191394,69.1187945 244.961645,68.7884521 C245.731896,68.4591437 246.550095,68.293714 247.418303,68.293714 L248.490158,68.293714 C249.539845,68.293714 250.509103,68.5294513 251.398965,68.999375 C252.28728,69.4698156 253.026082,70.105169 253.61434,70.905435 L255.021827,68.7150427 L255.882302,68.7150427 L255.882302,76.2539834 C255.882302,77.124557 255.717837,77.9465358 255.389423,78.7188856 C255.059463,79.4907184 254.608345,80.1648444 254.034524,80.7402295 C253.460186,81.3161315 252.788408,81.7684783 252.018156,82.0977868 C251.247905,82.4281292 250.429707,82.5935588 249.561498,82.5935588 L245.822119,82.5935588 C245.52928,82.5935588 245.249329,82.6530101 244.982267,82.7719127 C244.717268,82.8913323 244.482171,83.0495244 244.278524,83.2459721 C244.075392,83.4424199 243.918145,83.6776402 243.805752,83.9511161 C243.693875,84.225109 243.638194,84.5094413 243.638194,84.8041129 C243.638194,85.0987845 243.693875,85.380015 243.805752,85.6462534 C243.918145,85.9130087 244.075392,86.148746 244.278524,86.3519143 C244.482171,86.5561166 244.717268,86.7137918 244.982267,86.8259738 C245.249329,86.9381558 245.52928,86.9945053 245.822119,86.9945053 L249.350633,86.9945053 C250.218326,86.9945053 251.038071,87.1377053 251.808322,87.4261733 C252.578058,87.7136074 253.250352,88.1173592 253.824174,88.6369118 C254.398511,89.1564644 254.849629,89.7814784 255.179074,90.5114368 C255.508003,91.2408783 255.672467,92.0406274 255.672467,92.9112011 L255.672467,92.9954669 C255.672467,93.8660405 255.508003,94.6663066 255.179074,95.397299 L255.179074,95.397299 Z" id="Fill-22" fill="#005AA9" mask="url(#mask-3)"></path>
                    <path d="M275.414202,84.8041646 C275.414202,85.6747383 275.239942,86.4713856 274.888328,87.1941065 C274.539807,87.9178614 274.063427,88.5387396 273.460734,89.0582922 C272.859587,89.5773278 272.161515,89.9815966 271.371157,90.2685137 C270.580798,90.5569817 269.751257,90.7006987 268.883049,90.7006987 L267.160037,90.7006987 C266.291829,90.7006987 265.462288,90.5352691 264.67193,90.2059606 C263.880541,89.8756182 263.187624,89.4232714 262.592149,88.8473694 C261.996673,88.2719843 261.52184,87.5978583 261.164039,86.8260255 C260.807785,86.0536757 260.628885,85.2327309 260.628885,84.3626742 L260.628885,83.4983041 L263.21134,83.0774923 L263.21134,84.509493 C263.21134,85.0285286 263.320124,85.5170631 263.537691,85.9725117 C263.754228,86.4295112 264.045005,86.8260255 264.409508,87.1625715 C264.77298,87.4996344 265.193164,87.7663898 265.669545,87.9628375 C266.145409,88.1598023 266.642928,88.2580261 267.160037,88.2580261 L268.883049,88.2580261 C269.400159,88.2580261 269.897677,88.1809979 270.373542,88.0259076 C270.849922,87.8723682 271.2732,87.651106 271.644405,87.362638 C272.015095,87.0752039 272.308966,86.7272846 272.526533,86.320431 C272.74307,85.9130604 272.851854,85.4498573 272.851854,84.9303047 C272.851854,84.1584719 272.68378,83.5267373 272.348149,83.035101 C272.012001,82.5439816 271.567071,82.1335092 271.014387,81.8031668 C270.461188,81.4738584 269.83117,81.1993485 269.124333,80.9822221 C268.41698,80.7640617 267.692099,80.5469352 266.950719,80.3287748 C266.207792,80.1116484 265.483942,79.8624699 264.776589,79.5812395 C264.068721,79.300526 263.439734,78.9324449 262.886535,78.4754455 C262.33282,78.0199969 261.888921,77.4477136 261.552774,76.7596295 C261.217142,76.0715454 261.049068,75.2154468 261.049068,74.1902998 C261.049068,73.3197261 261.217142,72.5230788 261.552774,71.8003579 C261.888921,71.07712 262.343647,70.4562418 262.9185,69.9366892 C263.491806,69.4171366 264.160492,69.0133848 264.92404,68.7259507 C265.686558,68.4374827 266.50321,68.2937657 267.370903,68.2937657 L268.883049,68.2937657 C269.751257,68.2937657 270.569972,68.4591954 271.339707,68.7885038 C272.109958,69.1188462 272.781737,69.57171 273.356074,70.1470951 C273.929896,70.7224802 274.381014,71.3966061 274.710974,72.1689559 C275.039388,72.9407888 275.203852,73.7627675 275.203852,74.6323072 L275.203852,74.716573 L272.620366,75.1373847 L272.620366,74.4849714 C272.620366,73.9659358 272.52344,73.4774013 272.327526,73.0219527 C272.131612,72.5649532 271.86455,72.1689559 271.528403,71.8318929 C271.192256,71.49483 270.796819,71.2280746 270.342608,71.0316269 C269.88685,70.8351791 269.400159,70.7369553 268.883049,70.7369553 L267.370903,70.7369553 C266.851731,70.7369553 266.365039,70.8145004 265.910828,70.9690738 C265.456101,71.1231302 265.059633,71.3438754 264.723486,71.6318264 C264.387855,71.9192605 264.122855,72.2671798 263.926941,72.6740334 C263.730512,73.081404 263.631524,73.5446071 263.631524,74.0641597 C263.631524,74.8080763 263.799597,75.4149964 264.135744,75.885954 C264.471892,76.3558777 264.916307,76.7529089 265.470022,77.0749798 C266.022705,77.3991186 266.652723,77.6689758 267.360076,77.8861022 C268.066913,78.1042626 268.788186,78.3286266 269.522863,78.5597112 C270.258571,78.7923467 270.978813,79.0554833 271.686681,79.349121 C272.393003,79.6453435 273.023021,80.0232469 273.576735,80.4874839 C274.129419,80.9496531 274.573834,81.5296909 274.909981,82.2239786 C275.246129,82.9198172 275.414202,83.7790176 275.414202,84.8041646" id="Fill-23" fill="#005AA9" mask="url(#mask-3)"></path>
                    <polygon id="Fill-24" fill="#0094DA" mask="url(#mask-3)" points="43.9028244 134.497999 12.4385261 134.497999 21.504187 123.632371 12.4385261 112.871688 43.9028244 112.871688"></polygon>
                    <polygon id="Fill-25" fill="#0094DA" mask="url(#mask-3)" points="270.591574 134.497999 302.054841 134.497999 292.990211 123.632371 302.054841 112.871688 270.591574 112.871688"></polygon>
                    <polygon id="Fill-26" fill="#224099" mask="url(#mask-3)" points="270.591574 112.895313 270.591574 134.518523 283.184202 128.230644 283.184202 106.605367"></polygon>
                    <polygon id="Fill-27" fill="#224099" mask="url(#mask-3)" points="31.3099903 128.230489 43.9026182 134.518368 43.9026182 112.895158 31.3099903 106.605211"></polygon>
                    <polygon id="Fill-28" fill="#0094D9" mask="url(#mask-3)" points="31.159085 128.230748 283.27922 128.230748 283.27922 106.60547 31.159085 106.60547"></polygon>
                    <path d="M43.2680632,114.08832 C43.2680632,113.803987 43.2149602,113.539817 43.1092697,113.294257 C43.0025482,113.048697 42.8566438,112.833122 42.6705256,112.647014 C42.4844073,112.459354 42.2689019,112.313569 42.024525,112.206557 C41.779117,112.100062 41.5151487,112.046297 41.2315891,112.046297 L38.4078501,112.046297 L38.4078501,117.701407 L41.2315891,117.701407 C41.5151487,117.701407 41.779117,117.648676 42.024525,117.541664 C42.2689019,117.436203 42.4844073,117.291452 42.6705256,117.106894 C42.8566438,116.924405 43.0025482,116.709863 43.1092697,116.463269 C43.2149602,116.218744 43.2680632,115.953539 43.2680632,115.669207 L43.2680632,114.08832 Z M44.1672051,116.884598 C44.0042872,117.264052 43.7820795,117.595429 43.4985199,117.879244 C43.2149602,118.163576 42.8829376,118.386389 42.502452,118.550268 C42.1219665,118.712079 41.7162183,118.79376 41.284692,118.79376 L38.4078501,118.79376 L38.4078501,123.685826 L37.265878,123.685826 L37.265878,110.954978 L41.284692,110.954978 C41.7162183,110.954978 42.1219665,111.036142 42.502452,111.199504 C42.8829376,111.361832 43.2149602,111.585679 43.4985199,111.869494 C43.7820795,112.153826 44.0042872,112.486754 44.1672051,112.867759 C44.329092,113.249798 44.4100354,113.657685 44.4100354,114.08832 L44.4100354,115.669207 C44.4100354,116.100875 44.329092,116.506695 44.1672051,116.884598 L44.1672051,116.884598 Z" id="Fill-29" fill="#FFFFFF" mask="url(#mask-3)"></path>
                    <path d="M48.8903299,115.633433 C48.6717312,115.633433 48.4665371,115.67479 48.2747476,115.757505 C48.0829582,115.84022 47.9164313,115.953436 47.7746515,116.094568 C47.6328716,116.237251 47.5209944,116.404749 47.4379888,116.597061 C47.3554987,116.788856 47.3142537,116.994609 47.3142537,117.21432 L47.3142537,123.685722 L46.2253845,123.685722 L46.2253845,114.594328 L46.5883409,114.594328 L47.1812384,115.518666 C47.4292242,115.180569 47.7406243,114.91278 48.1154387,114.714781 C48.490253,114.516782 48.8990945,114.417525 49.3414476,114.417525 L49.9791991,114.417525 L49.9791991,115.633433 L48.8903299,115.633433 Z" id="Fill-30" fill="#FFFFFF" mask="url(#mask-3)"></path>
                    <path d="M56.3977531,117.027798 C56.3977531,116.80757 56.356508,116.602334 56.2740179,116.410539 C56.1910123,116.218744 56.0791351,116.051246 55.9373553,115.908046 C55.7955754,115.766914 55.628533,115.654215 55.4372591,115.5715 C55.2454696,115.488268 55.03976,115.446911 54.8216768,115.446911 L54.095764,115.446911 C53.8771653,115.446911 53.6719712,115.488268 53.4801817,115.5715 C53.2883922,115.654215 53.1218654,115.766914 52.9800855,115.908046 C52.8383057,116.051246 52.7264285,116.218744 52.6439384,116.410539 C52.5614483,116.602334 52.5196877,116.80757 52.5196877,117.027798 L52.5196877,121.252459 C52.5196877,121.471653 52.5614483,121.677923 52.6439384,121.869718 C52.7264285,122.061513 52.8383057,122.229528 52.9800855,122.371177 C53.1218654,122.513343 53.2883922,122.626559 53.4801817,122.709274 C53.6719712,122.791989 53.8771653,122.833346 54.095764,122.833346 L54.8216768,122.833346 C55.03976,122.833346 55.2454696,122.791989 55.4372591,122.709274 C55.628533,122.626559 55.7955754,122.513343 55.9373553,122.371177 C56.0791351,122.229528 56.1910123,122.061513 56.2740179,121.869718 C56.356508,121.677923 56.3977531,121.471653 56.3977531,121.252459 L56.3977531,117.027798 Z M57.2783348,122.229528 C57.1401639,122.5547 56.9494056,122.839033 56.7070909,123.081491 C56.4652918,123.324465 56.1822477,123.515226 55.857443,123.653774 C55.5331538,123.792838 55.1877266,123.862629 54.8216768,123.862629 L54.095764,123.862629 C53.7297142,123.862629 53.3848025,123.792838 53.0599978,123.653774 C52.7351931,123.515226 52.4516334,123.324465 52.2103499,123.081491 C51.9680352,122.839033 51.7777925,122.5547 51.6385904,122.229528 C51.5004195,121.903838 51.4308185,121.55747 51.4308185,121.190422 L51.4308185,117.089834 C51.4308185,116.722787 51.5004195,116.376419 51.6385904,116.051246 C51.7777925,115.725556 51.9680352,115.441224 52.2103499,115.198766 C52.4516334,114.955791 52.7351931,114.76503 53.0599978,114.625449 C53.3848025,114.487419 53.7297142,114.417628 54.095764,114.417628 L54.8216768,114.417628 C55.1877266,114.417628 55.5331538,114.487419 55.857443,114.625449 C56.1822477,114.76503 56.4652918,114.955791 56.7070909,115.198766 C56.9494056,115.441224 57.1401639,115.725556 57.2783348,116.051246 C57.4170213,116.376419 57.4866223,116.722787 57.4866223,117.089834 L57.4866223,121.190422 C57.4866223,121.55747 57.4170213,121.903838 57.2783348,122.229528 L57.2783348,122.229528 Z" id="Fill-31" fill="#FFFFFF" mask="url(#mask-3)"></path>
                    <path d="M62.7809394,111.993876 C62.5979145,111.993876 62.4282943,112.027996 62.2720787,112.095719 C62.115863,112.163442 61.9782077,112.25753 61.8606593,112.375916 C61.7420798,112.494301 61.6492785,112.632849 61.5812241,112.792592 C61.5136854,112.952852 61.4796582,113.125002 61.4796582,113.307492 L61.4796582,114.594741 L63.595529,114.594741 L63.595529,115.633329 L61.4796582,115.633329 L61.4796582,123.685619 L60.3902735,123.685619 L60.3902735,115.633329 L58.7523296,115.633329 L58.7523296,114.594741 L60.3902735,114.594741 L60.3902735,113.361256 C60.3902735,113.028846 60.4526566,112.716597 60.5769073,112.425028 C60.7006424,112.13139 60.8712938,111.875491 61.0898925,111.656813 C61.3079757,111.437102 61.5621483,111.265469 61.8513792,111.141397 C62.1406101,111.017324 62.4499479,110.955288 62.7809394,110.955288 L63.7811317,110.955288 L63.7811317,111.993876 L62.7809394,111.993876 Z" id="Fill-32" fill="#FFFFFF" mask="url(#mask-3)"></path>
                    <path d="M69.8370386,117.027798 C69.8370386,116.80757 69.7957936,116.602334 69.7133035,116.410539 C69.6302978,116.218744 69.5184207,116.051246 69.3766408,115.908046 C69.234861,115.766914 69.0678185,115.654215 68.8765446,115.5715 C68.6847552,115.488268 68.4790455,115.446911 68.2609623,115.446911 L67.5350495,115.446911 C67.3164508,115.446911 67.1117723,115.488268 66.9194672,115.5715 C66.7276778,115.654215 66.5611509,115.766914 66.4193711,115.908046 C66.2775912,116.051246 66.165714,116.218744 66.0832239,116.410539 C66.0007339,116.602334 65.9589732,116.80757 65.9589732,117.027798 L65.9589732,118.377084 L69.8370386,118.377084 L69.8370386,117.027798 Z M70.7176203,122.229528 C70.5794494,122.5547 70.3886911,122.839033 70.146892,123.081491 C69.9045774,123.324465 69.6215333,123.515226 69.2972441,123.653774 C68.9724394,123.792838 68.6270121,123.862629 68.2609623,123.862629 L67.5350495,123.862629 C67.1689998,123.862629 66.8240881,123.792838 66.4992833,123.653774 C66.1744786,123.515226 65.8909189,123.324465 65.6496354,123.081491 C65.4073208,122.839033 65.217078,122.5547 65.077876,122.229528 C64.9397051,121.903838 64.8701041,121.55747 64.8701041,121.190422 L64.8701041,117.089834 C64.8701041,116.722787 64.9397051,116.376419 65.077876,116.051246 C65.217078,115.725556 65.4073208,115.441224 65.6496354,115.198766 C65.8909189,114.955791 66.1744786,114.76503 66.4992833,114.625449 C66.8240881,114.487419 67.1689998,114.417628 67.5350495,114.417628 L68.2609623,114.417628 C68.6270121,114.417628 68.9724394,114.487419 69.2972441,114.625449 C69.6215333,114.76503 69.9045774,114.955791 70.146892,115.198766 C70.3886911,115.441224 70.5794494,115.725556 70.7176203,116.051246 C70.8563068,116.376419 70.9259078,116.722787 70.9259078,117.089834 L70.9259078,119.22853 L65.9589732,119.22853 L65.9589732,121.252459 C65.9589732,121.471653 66.0007339,121.677923 66.0832239,121.869718 C66.165714,122.061513 66.2775912,122.229528 66.4193711,122.371177 C66.5611509,122.513343 66.7276778,122.626559 66.9194672,122.709274 C67.1117723,122.791989 67.3164508,122.833346 67.5350495,122.833346 L68.2609623,122.833346 C68.4790455,122.833346 68.6847552,122.791989 68.8765446,122.709274 C69.0678185,122.626559 69.234861,122.513343 69.3766408,122.371177 C69.5184207,122.229528 69.6302978,122.061513 69.7133035,121.869718 C69.7957936,121.677923 69.8370386,121.471653 69.8370386,121.252459 L69.8370386,120.649674 L70.9259078,120.827511 L70.9259078,121.190422 C70.9259078,121.55747 70.8563068,121.903838 70.7176203,122.229528 L70.7176203,122.229528 Z" id="Fill-33" fill="#FFFFFF" mask="url(#mask-3)"></path>
                    <path d="M79.3365975,121.376789 C79.3365975,121.743836 79.2628719,122.080382 79.1154209,122.385393 C78.9679699,122.690404 78.7669003,122.95199 78.5132432,123.17015 C78.2595862,123.389345 77.9657153,123.559944 77.6326615,123.680915 C77.2990922,123.802402 76.9495405,123.862887 76.5834907,123.862887 L75.8570623,123.862887 C75.4910125,123.862887 75.1414608,123.793097 74.8078915,123.654032 C74.4748377,123.515485 74.1825135,123.324724 73.9314343,123.081749 C73.6808706,122.838774 73.4803166,122.554959 73.3297722,122.229269 C73.1792278,121.903579 73.1039556,121.557211 73.1039556,121.190681 L73.1039556,120.827253 L74.1928247,120.649416 L74.1928247,121.252717 C74.1928247,121.471911 74.2381943,121.677665 74.3299645,121.869977 C74.4212192,122.061772 74.5439232,122.229269 74.697561,122.371435 C74.8506832,122.513601 75.0280369,122.6263 75.2291065,122.709015 C75.429145,122.79173 75.6389791,122.833088 75.8570623,122.833088 L76.5834907,122.833088 C76.8015739,122.833088 77.011408,122.801552 77.2119621,122.735381 C77.4125161,122.67076 77.5914165,122.577188 77.7476321,122.456218 C77.9038477,122.334731 78.0275828,122.187912 78.1193531,122.016795 C78.2111233,121.845162 78.2564928,121.649748 78.2564928,121.430554 C78.2564928,121.104864 78.1858607,120.838626 78.0440808,120.631839 C77.902301,120.424535 77.7151516,120.251351 77.4821171,120.112286 C77.248567,119.973222 76.9830521,119.857938 76.6850566,119.765918 C76.3870612,119.673898 76.0813323,119.582394 75.768901,119.491408 C75.4559543,119.398871 75.1507409,119.293409 74.8527455,119.175024 C74.5542345,119.057672 74.2887195,118.902065 74.055685,118.71027 C73.8221349,118.517441 73.6349855,118.2755 73.4932057,117.985481 C73.3519414,117.695979 73.2807937,117.334619 73.2807937,116.903467 C73.2807937,116.536937 73.3519414,116.199874 73.4932057,115.894863 C73.6349855,115.589852 73.826775,115.328784 74.0690896,115.110106 C74.3108887,114.890912 74.5929017,114.72083 74.914613,114.599342 C75.2358088,114.477855 75.5796894,114.417887 75.9457392,114.417887 L76.5834907,114.417887 C76.9495405,114.417887 77.2949677,114.48716 77.6192569,114.625708 C77.943546,114.764772 78.2271057,114.95605 78.4689048,115.198508 C78.7112195,115.441483 78.9014622,115.725815 79.0401487,116.050988 C79.1788352,116.376677 79.2484362,116.723046 79.2484362,117.090093 L79.2484362,117.12473 L78.159567,117.302567 L78.159567,117.028057 C78.159567,116.807828 78.1178064,116.602592 78.0353163,116.410797 C77.9523106,116.218485 77.8404334,116.050988 77.6986536,115.908305 C77.5568737,115.767172 77.3903469,115.653956 77.1985574,115.571242 C77.006768,115.488527 76.8015739,115.447169 76.5834907,115.447169 L75.9457392,115.447169 C75.727656,115.447169 75.5219463,115.479221 75.3306724,115.544876 C75.138883,115.610014 74.9718405,115.703068 74.8305763,115.824556 C74.6887964,115.946043 74.5769192,116.092345 74.4944291,116.263978 C74.4109079,116.435095 74.3696629,116.630508 74.3696629,116.849186 C74.3696629,117.163502 74.4408106,117.419401 74.5825904,117.617917 C74.7238547,117.816432 74.9110041,117.982896 75.1445542,118.119376 C75.3775887,118.254821 75.6431036,118.369588 75.9416147,118.460574 C76.2396101,118.552078 76.5437923,118.6472 76.8531302,118.744907 C77.1634991,118.842613 77.4671658,118.953245 77.7651612,119.078351 C78.0631567,119.202423 78.3286717,119.361132 78.5622217,119.557063 C78.7952562,119.752477 78.9824056,119.997519 79.1241855,120.289089 C79.2659653,120.582727 79.3365975,120.945638 79.3365975,121.376789" id="Fill-34" fill="#FFFFFF" mask="url(#mask-3)"></path>
                    <path d="M87.6585587,121.376789 C87.6585587,121.743836 87.5848332,122.080382 87.4373821,122.385393 C87.2899311,122.690404 87.0888615,122.95199 86.8352045,123.17015 C86.5815474,123.389345 86.2876765,123.559944 85.9546227,123.680915 C85.6210534,123.802402 85.2715017,123.862887 84.9054519,123.862887 L84.1790235,123.862887 C83.8129738,123.862887 83.463422,123.793097 83.1298527,123.654032 C82.796799,123.515485 82.5044747,123.324724 82.2533955,123.081749 C82.0023163,122.838774 81.8022778,122.554959 81.6517334,122.229269 C81.501189,121.903579 81.4259168,121.557211 81.4259168,121.190681 L81.4259168,120.827253 L82.514786,120.649416 L82.514786,121.252717 C82.514786,121.471911 82.5601555,121.677665 82.6519257,121.869977 C82.7431804,122.061772 82.8658844,122.229269 83.0195222,122.371435 C83.1726444,122.513601 83.3499981,122.6263 83.5510677,122.709015 C83.7511062,122.79173 83.9609404,122.833088 84.1790235,122.833088 L84.9054519,122.833088 C85.1235351,122.833088 85.3333692,122.801552 85.5339233,122.735381 C85.7344773,122.67076 85.9128621,122.577188 86.0695933,122.456218 C86.2258089,122.334731 86.3495441,122.187912 86.4413143,122.016795 C86.5330845,121.845162 86.5784541,121.649748 86.5784541,121.430554 C86.5784541,121.104864 86.5078219,120.838626 86.3660421,120.631839 C86.2242622,120.424535 86.0371128,120.251351 85.8040783,120.112286 C85.5705283,119.973222 85.3050133,119.857938 85.0070178,119.765918 C84.7085068,119.673898 84.4032935,119.582394 84.0908623,119.491408 C83.7779155,119.398871 83.4727021,119.293409 83.1747067,119.175024 C82.8761957,119.057672 82.6106807,118.902065 82.3776462,118.71027 C82.1440961,118.517441 81.9569467,118.2755 81.8151669,117.985481 C81.673387,117.695979 81.6027549,117.334619 81.6027549,116.903467 C81.6027549,116.536937 81.673387,116.199874 81.8151669,115.894863 C81.9569467,115.589852 82.1487362,115.328784 82.3910508,115.110106 C82.6328499,114.890912 82.9143473,114.72083 83.2365743,114.599342 C83.5577701,114.477855 83.9016506,114.417887 84.2677004,114.417887 L84.9054519,114.417887 C85.2715017,114.417887 85.6169289,114.48716 85.9412181,114.625708 C86.2655073,114.764772 86.549067,114.95605 86.790866,115.198508 C87.0331807,115.441483 87.2229079,115.725815 87.3621099,116.050988 C87.5007964,116.376677 87.5703974,116.723046 87.5703974,117.090093 L87.5703974,117.12473 L86.4815282,117.302567 L86.4815282,117.028057 C86.4815282,116.807828 86.4397676,116.602592 86.3572775,116.410797 C86.2742718,116.218485 86.1623947,116.050988 86.0206148,115.908305 C85.878835,115.767172 85.7123081,115.653956 85.5205186,115.571242 C85.3287292,115.488527 85.1235351,115.447169 84.9054519,115.447169 L84.2677004,115.447169 C84.0496172,115.447169 83.8439076,115.479221 83.6526337,115.544876 C83.4608442,115.610014 83.2938018,115.703068 83.1525375,115.824556 C83.0107576,115.946043 82.8983649,116.092345 82.8158748,116.263978 C82.7328691,116.435095 82.6916241,116.630508 82.6916241,116.849186 C82.6916241,117.163502 82.7627718,117.419401 82.9040361,117.617917 C83.0458159,117.816432 83.2329653,117.982896 83.4665154,118.119376 C83.6995499,118.254821 83.9650649,118.369588 84.2635759,118.460574 C84.5615713,118.552078 84.865238,118.6472 85.1750914,118.744907 C85.4854604,118.842613 85.7886114,118.953245 86.0871224,119.078351 C86.3851179,119.202423 86.6506329,119.361132 86.8836674,119.557063 C87.1172175,119.752477 87.3043668,119.997519 87.4461467,120.289089 C87.587411,120.582727 87.6585587,120.945638 87.6585587,121.376789" id="Fill-35" fill="#FFFFFF" mask="url(#mask-3)"></path>
                    <path d="M90.1116593,123.686084 L91.2005285,123.686084 L91.2005285,114.594689 L90.1116593,114.594689 L90.1116593,123.686084 Z M90.0229824,112.411018 L91.2886898,112.411018 L91.2886898,110.955237 L90.0229824,110.955237 L90.0229824,112.411018 Z" id="Fill-36" fill="#FFFFFF" mask="url(#mask-3)"></path>
                    <path d="M98.7078485,117.027798 C98.7078485,116.80757 98.6666035,116.602334 98.5841134,116.410539 C98.5011077,116.218744 98.3892305,116.051246 98.2474507,115.908046 C98.1056709,115.766914 97.9386284,115.654215 97.7473545,115.5715 C97.5555651,115.488268 97.3498554,115.446911 97.1317722,115.446911 L96.4058594,115.446911 C96.1872607,115.446911 95.9825821,115.488268 95.7902771,115.5715 C95.5984877,115.654215 95.4319608,115.766914 95.290181,115.908046 C95.1484011,116.051246 95.0365239,116.218744 94.9540338,116.410539 C94.8715437,116.602334 94.8297831,116.80757 94.8297831,117.027798 L94.8297831,121.252459 C94.8297831,121.471653 94.8715437,121.677923 94.9540338,121.869718 C95.0365239,122.061513 95.1484011,122.229528 95.290181,122.371177 C95.4319608,122.513343 95.5984877,122.626559 95.7902771,122.709274 C95.9825821,122.791989 96.1872607,122.833346 96.4058594,122.833346 L97.1317722,122.833346 C97.3498554,122.833346 97.5555651,122.791989 97.7473545,122.709274 C97.9386284,122.626559 98.1056709,122.513343 98.2474507,122.371177 C98.3892305,122.229528 98.5011077,122.061513 98.5841134,121.869718 C98.6666035,121.677923 98.7078485,121.471653 98.7078485,121.252459 L98.7078485,117.027798 Z M99.5884302,122.229528 C99.4502593,122.5547 99.259501,122.839033 99.0177019,123.081491 C98.7753873,123.324465 98.4923432,123.515226 98.168054,123.653774 C97.8432493,123.792838 97.497822,123.862629 97.1317722,123.862629 L96.4058594,123.862629 C96.0398097,123.862629 95.694898,123.792838 95.3700932,123.653774 C95.0452885,123.515226 94.7617288,123.324465 94.5204453,123.081491 C94.2781307,122.839033 94.0878879,122.5547 93.9486859,122.229528 C93.810515,121.903838 93.7409139,121.55747 93.7409139,121.190422 L93.7409139,117.089834 C93.7409139,116.722787 93.810515,116.376419 93.9486859,116.051246 C94.0878879,115.725556 94.2781307,115.441224 94.5204453,115.198766 C94.7617288,114.955791 95.0452885,114.76503 95.3700932,114.625449 C95.694898,114.487419 96.0398097,114.417628 96.4058594,114.417628 L97.1317722,114.417628 C97.497822,114.417628 97.8432493,114.487419 98.168054,114.625449 C98.4923432,114.76503 98.7753873,114.955791 99.0177019,115.198766 C99.259501,115.441224 99.4502593,115.725556 99.5884302,116.051246 C99.7271167,116.376419 99.7967177,116.722787 99.7967177,117.089834 L99.7967177,121.190422 C99.7967177,121.55747 99.7271167,121.903838 99.5884302,122.229528 L99.5884302,122.229528 Z" id="Fill-37" fill="#FFFFFF" mask="url(#mask-3)"></path>
                    <path d="M106.941494,123.685826 L106.941494,117.027798 C106.941494,116.80757 106.900249,116.602334 106.817759,116.410539 C106.734753,116.218744 106.622876,116.051246 106.481096,115.908046 C106.339832,115.766914 106.172274,115.654215 105.981,115.5715 C105.78921,115.488268 105.583501,115.446911 105.365417,115.446911 L104.639505,115.446911 C104.420906,115.446911 104.216227,115.488268 104.023922,115.5715 C103.832133,115.654215 103.665606,115.766914 103.523826,115.908046 C103.382046,116.051246 103.270169,116.218744 103.187679,116.410539 C103.105189,116.602334 103.063944,116.80757 103.063944,117.027798 L103.063944,123.685826 L101.974559,123.685826 L101.974559,114.594431 L102.338031,114.594431 L102.930929,115.518769 C103.178399,115.180672 103.490315,114.912366 103.865129,114.714884 C104.239428,114.516369 104.648785,114.417628 105.091138,114.417628 L105.365417,114.417628 C105.731467,114.417628 106.076895,114.487419 106.401699,114.625449 C106.725988,114.76503 107.009033,114.955791 107.251347,115.198766 C107.493146,115.441224 107.683905,115.725556 107.822076,116.051246 C107.961278,116.376419 108.030363,116.722787 108.030363,117.089834 L108.030363,123.685826 L106.941494,123.685826 Z" id="Fill-38" fill="#FFFFFF" mask="url(#mask-3)"></path>
                    <path d="M115.175242,119.282295 L112.873253,119.282295 C112.654654,119.282295 112.44946,119.323652 112.257671,119.406367 C112.065881,119.489082 111.899354,119.603332 111.757575,119.748082 C111.615795,119.893867 111.503918,120.061365 111.421427,120.254194 C111.338937,120.447023 111.297177,120.652259 111.297177,120.870419 L111.297177,121.252459 C111.297177,121.471653 111.338937,121.677923 111.421427,121.869718 C111.503918,122.061513 111.615795,122.229528 111.757575,122.371177 C111.899354,122.513343 112.065881,122.626559 112.257671,122.709274 C112.44946,122.791989 112.654654,122.833346 112.873253,122.833346 L113.599166,122.833346 C113.817249,122.833346 114.022959,122.791989 114.214748,122.709274 C114.406022,122.626559 114.573065,122.513343 114.714844,122.371177 C114.856624,122.229528 114.968501,122.061513 115.051507,121.869718 C115.133997,121.677923 115.175242,121.471653 115.175242,121.252459 L115.175242,119.282295 Z M115.901155,123.685826 L115.298977,122.779581 C115.051507,123.105271 114.741138,123.367891 114.369417,123.565372 C113.997696,123.763888 113.590401,123.862629 113.148048,123.862629 L112.873253,123.862629 C112.507203,123.862629 112.162292,123.792838 111.837487,123.653774 C111.512682,123.515226 111.229122,123.324465 110.987839,123.081491 C110.745524,122.839033 110.555282,122.5547 110.41608,122.229528 C110.277909,121.903838 110.208308,121.55747 110.208308,121.190422 L110.208308,121.102021 C110.208308,120.734974 110.277909,120.388606 110.41608,120.063433 C110.555282,119.737743 110.745524,119.453411 110.987839,119.210953 C111.229122,118.967978 111.512682,118.777734 111.837487,118.63867 C112.162292,118.499605 112.507203,118.429815 112.873253,118.429815 L115.175242,118.429815 L115.175242,117.027798 C115.175242,116.80757 115.133997,116.602334 115.051507,116.410539 C114.968501,116.218744 114.856624,116.051246 114.714844,115.908046 C114.573065,115.766914 114.406022,115.654215 114.214748,115.5715 C114.022959,115.488268 113.817249,115.446911 113.599166,115.446911 L112.961414,115.446911 C112.743331,115.446911 112.538137,115.488268 112.346348,115.5715 C112.154558,115.654215 111.988031,115.766914 111.846251,115.908046 C111.704472,116.051246 111.592594,116.218744 111.510104,116.410539 C111.427614,116.602334 111.385854,116.80757 111.385854,117.027798 L111.385854,117.355039 L110.296984,117.178236 L110.296984,117.089834 C110.296984,116.722787 110.36607,116.376419 110.504756,116.051246 C110.643958,115.725556 110.833686,115.441224 111.076,115.198766 C111.317799,114.955791 111.601359,114.76503 111.926164,114.625449 C112.250453,114.487419 112.59588,114.417628 112.961414,114.417628 L113.599166,114.417628 C113.965216,114.417628 114.310643,114.487419 114.635448,114.625449 C114.959737,114.76503 115.242781,114.955791 115.485096,115.198766 C115.726895,115.441224 115.917653,115.725556 116.055824,116.051246 C116.19451,116.376419 116.264111,116.722787 116.264111,117.089834 L116.264111,123.685826 L115.901155,123.685826 Z" id="Fill-39" fill="#FFFFFF" mask="url(#mask-3)"></path>
                    <polygon id="Fill-40" fill="#FFFFFF" mask="url(#mask-3)" points="118.805322 123.686084 119.894191 123.686084 119.894191 110.955237 118.805322 110.955237"></polygon>
                    <path d="M132.970468,114.08832 C132.970468,113.803987 132.917366,113.539817 132.811675,113.294257 C132.704954,113.048697 132.559049,112.833122 132.372931,112.647014 C132.186813,112.459354 131.971823,112.313569 131.72693,112.206557 C131.481522,112.100062 131.217554,112.046297 130.933994,112.046297 L128.110255,112.046297 L128.110255,117.701407 L130.933994,117.701407 C131.217554,117.701407 131.481522,117.648676 131.72693,117.541664 C131.971823,117.436203 132.186813,117.291452 132.372931,117.106894 C132.559049,116.924405 132.704954,116.709863 132.811675,116.463269 C132.917366,116.218744 132.970468,115.953539 132.970468,115.669207 L132.970468,114.08832 Z M133.86961,116.884598 C133.706693,117.264052 133.484485,117.595429 133.200925,117.879244 C132.917366,118.163576 132.585343,118.386389 132.204857,118.550268 C131.824372,118.712079 131.418624,118.79376 130.987097,118.79376 L128.110255,118.79376 L128.110255,123.685826 L126.968283,123.685826 L126.968283,110.954978 L130.987097,110.954978 C131.418624,110.954978 131.824372,111.036142 132.204857,111.199504 C132.585343,111.361832 132.917366,111.585679 133.200925,111.869494 C133.484485,112.153826 133.706693,112.486754 133.86961,112.867759 C134.031497,113.249798 134.112441,113.657685 134.112441,114.08832 L134.112441,115.669207 C134.112441,116.100875 134.031497,116.506695 133.86961,116.884598 L133.86961,116.884598 Z" id="Fill-41" fill="#FFFFFF" mask="url(#mask-3)"></path>
                    <path d="M140.894518,119.282295 L138.592529,119.282295 C138.37393,119.282295 138.169252,119.323652 137.976947,119.406367 C137.785157,119.489082 137.61863,119.603332 137.476851,119.748082 C137.335071,119.893867 137.223194,120.061365 137.140703,120.254194 C137.058213,120.447023 137.016453,120.652259 137.016453,120.870419 L137.016453,121.252459 C137.016453,121.471653 137.058213,121.677923 137.140703,121.869718 C137.223194,122.061513 137.335071,122.229528 137.476851,122.371177 C137.61863,122.513343 137.785157,122.626559 137.976947,122.709274 C138.169252,122.791989 138.37393,122.833346 138.592529,122.833346 L139.318442,122.833346 C139.536525,122.833346 139.742235,122.791989 139.934024,122.709274 C140.125298,122.626559 140.29234,122.513343 140.43412,122.371177 C140.5759,122.229528 140.687777,122.061513 140.770783,121.869718 C140.853273,121.677923 140.894518,121.471653 140.894518,121.252459 L140.894518,119.282295 Z M141.620431,123.685826 L141.018253,122.779581 C140.770783,123.105271 140.460414,123.367891 140.088693,123.565372 C139.716972,123.763888 139.309677,123.862629 138.867324,123.862629 L138.592529,123.862629 C138.226479,123.862629 137.881568,123.792838 137.556763,123.653774 C137.231958,123.515226 136.948398,123.324465 136.707115,123.081491 C136.4648,122.839033 136.274558,122.5547 136.135355,122.229528 C135.997185,121.903838 135.927584,121.55747 135.927584,121.190422 L135.927584,121.102021 C135.927584,120.734974 135.997185,120.388606 136.135355,120.063433 C136.274558,119.737743 136.4648,119.453411 136.707115,119.210953 C136.948398,118.967978 137.231958,118.777734 137.556763,118.63867 C137.881568,118.499605 138.226479,118.429815 138.592529,118.429815 L140.894518,118.429815 L140.894518,117.027798 C140.894518,116.80757 140.853273,116.602334 140.770783,116.410539 C140.687777,116.218744 140.5759,116.051246 140.43412,115.908046 C140.29234,115.766914 140.125298,115.654215 139.934024,115.5715 C139.742235,115.488268 139.536525,115.446911 139.318442,115.446911 L138.68069,115.446911 C138.462607,115.446911 138.257413,115.488268 138.065624,115.5715 C137.873834,115.654215 137.707307,115.766914 137.565527,115.908046 C137.423748,116.051246 137.31187,116.218744 137.22938,116.410539 C137.14689,116.602334 137.10513,116.80757 137.10513,117.027798 L137.10513,117.355039 L136.01626,117.178236 L136.01626,117.089834 C136.01626,116.722787 136.085346,116.376419 136.224032,116.051246 C136.363234,115.725556 136.552962,115.441224 136.795276,115.198766 C137.037075,114.955791 137.320635,114.76503 137.64544,114.625449 C137.969729,114.487419 138.315156,114.417628 138.68069,114.417628 L139.318442,114.417628 C139.684492,114.417628 140.029919,114.487419 140.354724,114.625449 C140.679013,114.76503 140.962057,114.955791 141.204372,115.198766 C141.446171,115.441224 141.636929,115.725556 141.7751,116.051246 C141.913786,116.376419 141.983387,116.722787 141.983387,117.089834 L141.983387,123.685826 L141.620431,123.685826 Z" id="Fill-42" fill="#FFFFFF" mask="url(#mask-3)"></path>
                    <path d="M144.524701,123.686084 L145.61357,123.686084 L145.61357,114.594689 L144.524701,114.594689 L144.524701,123.686084 Z M144.436024,112.411018 L145.701731,112.411018 L145.701731,110.955237 L144.436024,110.955237 L144.436024,112.411018 Z" id="Fill-43" fill="#FFFFFF" mask="url(#mask-3)"></path>
                    <path d="M153.120993,123.685826 L153.120993,117.027798 C153.120993,116.80757 153.079748,116.602334 152.997258,116.410539 C152.914252,116.218744 152.802375,116.051246 152.660595,115.908046 C152.518815,115.766914 152.351773,115.654215 152.160499,115.5715 C151.96871,115.488268 151.763,115.446911 151.544917,115.446911 L150.819004,115.446911 C150.600405,115.446911 150.395727,115.488268 150.203422,115.5715 C150.011632,115.654215 149.845105,115.766914 149.703326,115.908046 C149.561546,116.051246 149.449669,116.218744 149.367178,116.410539 C149.284688,116.602334 149.243443,116.80757 149.243443,117.027798 L149.243443,123.685826 L148.154059,123.685826 L148.154059,114.594431 L148.517531,114.594431 L149.110428,115.518769 C149.357898,115.180672 149.669814,114.912366 150.044628,114.714884 C150.418927,114.516369 150.828284,114.417628 151.270637,114.417628 L151.544917,114.417628 C151.910967,114.417628 152.256394,114.487419 152.581199,114.625449 C152.905488,114.76503 153.188532,114.955791 153.430847,115.198766 C153.672646,115.441224 153.863404,115.725556 154.001575,116.051246 C154.140261,116.376419 154.209862,116.722787 154.209862,117.089834 L154.209862,123.685826 L153.120993,123.685826 Z" id="Fill-44" fill="#FFFFFF" mask="url(#mask-3)"></path>
                    <path d="M159.689524,123.685826 C159.359048,123.685826 159.047648,123.62379 158.756871,123.499717 C158.464031,123.375128 158.210374,123.202978 157.994869,122.983784 C157.778848,122.765623 157.608196,122.510758 157.481368,122.219705 C157.354539,121.930203 157.291125,121.619506 157.291125,121.288129 L157.291125,115.633536 L155.661946,115.633536 L155.661946,114.594431 L157.291125,114.594431 L157.291125,112.410759 L158.379994,112.232922 L158.379994,114.594431 L160.682499,114.594431 L160.682499,115.633536 L158.379994,115.633536 L158.379994,121.34086 C158.379994,121.525418 158.414021,121.694983 158.482076,121.852141 C158.549614,122.008782 158.642416,122.146296 158.76048,122.265198 C158.879059,122.383584 159.017746,122.476638 159.177055,122.544361 C159.336879,122.613118 159.507531,122.647238 159.689524,122.647238 L160.682499,122.647238 L160.682499,123.685826 L159.689524,123.685826 Z" id="Fill-45" fill="#FFFFFF" mask="url(#mask-3)"></path>
                    <path d="M167.648735,117.027798 C167.648735,116.80757 167.60749,116.602334 167.525,116.410539 C167.44251,116.218744 167.330633,116.051246 167.188853,115.908046 C167.047073,115.766914 166.880031,115.654215 166.688757,115.5715 C166.496452,115.488268 166.291773,115.446911 166.073175,115.446911 L165.347777,115.446911 C165.128148,115.446911 164.923985,115.488268 164.732195,115.5715 C164.53989,115.654215 164.373879,115.766914 164.231068,115.908046 C164.090319,116.051246 163.977926,116.218744 163.895436,116.410539 C163.812946,116.602334 163.771701,116.80757 163.771701,117.027798 L163.771701,118.377084 L167.648735,118.377084 L167.648735,117.027798 Z M168.529833,122.229528 C168.392177,122.5547 168.200388,122.839033 167.958589,123.081491 C167.716274,123.324465 167.433746,123.515226 167.109456,123.653774 C166.784652,123.792838 166.439224,123.862629 166.073175,123.862629 L165.347777,123.862629 C164.981728,123.862629 164.636816,123.792838 164.312011,123.653774 C163.987207,123.515226 163.703647,123.324465 163.461848,123.081491 C163.219533,122.839033 163.02929,122.5547 162.890088,122.229528 C162.752433,121.903838 162.682832,121.55747 162.682832,121.190422 L162.682832,117.089834 C162.682832,116.722787 162.752433,116.376419 162.890088,116.051246 C163.02929,115.725556 163.219533,115.441224 163.461848,115.198766 C163.703647,114.955791 163.987207,114.76503 164.312011,114.625449 C164.636816,114.487419 164.981728,114.417628 165.347777,114.417628 L166.073175,114.417628 C166.439224,114.417628 166.784652,114.487419 167.109456,114.625449 C167.433746,114.76503 167.716274,114.955791 167.958589,115.198766 C168.200388,115.441224 168.392177,115.725556 168.529833,116.051246 C168.669035,116.376419 168.73812,116.722787 168.73812,117.089834 L168.73812,119.22853 L163.771701,119.22853 L163.771701,121.252459 C163.771701,121.471653 163.812946,121.677923 163.895436,121.869718 C163.977926,122.061513 164.090319,122.229528 164.231068,122.371177 C164.373879,122.513343 164.53989,122.626559 164.732195,122.709274 C164.923985,122.791989 165.128148,122.833346 165.347777,122.833346 L166.073175,122.833346 C166.291773,122.833346 166.496452,122.791989 166.688757,122.709274 C166.880031,122.626559 167.047073,122.513343 167.188853,122.371177 C167.330633,122.229528 167.44251,122.061513 167.525,121.869718 C167.60749,121.677923 167.648735,121.471653 167.648735,121.252459 L167.648735,120.649674 L168.73812,120.827511 L168.73812,121.190422 C168.73812,121.55747 168.669035,121.903838 168.529833,122.229528 L168.529833,122.229528 Z" id="Fill-46" fill="#FFFFFF" mask="url(#mask-3)"></path>
                    <path d="M173.581165,115.633433 C173.362566,115.633433 173.156857,115.67479 172.965583,115.757505 C172.774309,115.84022 172.607266,115.953436 172.465486,116.094568 C172.323707,116.237251 172.211314,116.404749 172.128824,116.597061 C172.045818,116.788856 172.004573,116.994609 172.004573,117.21432 L172.004573,123.685722 L170.916219,123.685722 L170.916219,114.594328 L171.279176,114.594328 L171.872589,115.518666 C172.120059,115.180569 172.431459,114.91278 172.805758,114.714781 C173.181604,114.516782 173.590445,114.417525 174.032283,114.417525 L174.669519,114.417525 L174.669519,115.633433 L173.581165,115.633433 Z" id="Fill-47" fill="#FFFFFF" mask="url(#mask-3)"></path>
                    <path d="M182.354863,121.376789 C182.354863,121.743836 182.280621,122.080382 182.133686,122.385393 C181.985204,122.690404 181.784134,122.95199 181.530993,123.17015 C181.277851,123.389345 180.982949,123.559944 180.650927,123.680915 C180.316842,123.802402 179.967806,123.862887 179.601756,123.862887 L178.875327,123.862887 C178.509278,123.862887 178.15921,123.793097 177.826157,123.654032 C177.492072,123.515485 177.200263,123.324724 176.949699,123.081749 C176.69862,122.838774 176.497551,122.554959 176.347522,122.229269 C176.197493,121.903579 176.122221,121.557211 176.122221,121.190681 L176.122221,120.827253 L177.210574,120.649416 L177.210574,121.252717 C177.210574,121.471911 177.255944,121.677665 177.347714,121.869977 C177.439484,122.061772 177.561673,122.229269 177.715826,122.371435 C177.868433,122.513601 178.045786,122.6263 178.246856,122.709015 C178.44741,122.79173 178.656729,122.833088 178.875327,122.833088 L179.601756,122.833088 C179.819323,122.833088 180.029673,122.801552 180.230227,122.735381 C180.430266,122.67076 180.609682,122.577188 180.765382,122.456218 C180.921082,122.334731 181.044817,122.187912 181.137103,122.016795 C181.228873,121.845162 181.273727,121.649748 181.273727,121.430554 C181.273727,121.104864 181.20361,120.838626 181.06183,120.631839 C180.920051,120.424535 180.733417,120.251351 180.499867,120.112286 C180.266317,119.973222 180.001317,119.857938 179.703322,119.765918 C179.404811,119.673898 179.098566,119.582394 178.787166,119.491408 C178.473704,119.398871 178.167975,119.293409 177.870495,119.175024 C177.571984,119.057672 177.306469,118.902065 177.07395,118.71027 C176.839884,118.517441 176.653251,118.2755 176.510955,117.985481 C176.370206,117.695979 176.298543,117.334619 176.298543,116.903467 C176.298543,116.536937 176.370206,116.199874 176.510955,115.894863 C176.653251,115.589852 176.84504,115.328784 177.086839,115.110106 C177.329154,114.890912 177.610651,114.72083 177.932363,114.599342 C178.254074,114.477855 178.597439,114.417887 178.963489,114.417887 L179.601756,114.417887 C179.967806,114.417887 180.312717,114.48716 180.637522,114.625708 C180.961296,114.764772 181.244855,114.95605 181.486654,115.198508 C181.728969,115.441483 181.919727,115.725815 182.058414,116.050988 C182.1971,116.376677 182.266701,116.723046 182.266701,117.090093 L182.266701,117.12473 L181.177316,117.302567 L181.177316,117.028057 C181.177316,116.807828 181.13504,116.602592 181.05255,116.410797 C180.97006,116.218485 180.858183,116.050988 180.716403,115.908305 C180.574623,115.767172 180.408612,115.653956 180.216307,115.571242 C180.024002,115.488527 179.819323,115.447169 179.601756,115.447169 L178.963489,115.447169 C178.745921,115.447169 178.539696,115.479221 178.347906,115.544876 C178.156632,115.610014 177.98959,115.703068 177.848841,115.824556 C177.70603,115.946043 177.594669,116.092345 177.512179,116.263978 C177.428657,116.435095 177.387412,116.630508 177.387412,116.849186 C177.387412,117.163502 177.45856,117.419401 177.60034,117.617917 C177.74212,117.816432 177.929785,117.982896 178.162304,118.119376 C178.394823,118.254821 178.661369,118.369588 178.95988,118.460574 C179.25736,118.552078 179.561542,118.6472 179.87088,118.744907 C180.181764,118.842613 180.484915,118.953245 180.782911,119.078351 C181.080391,119.202423 181.346937,119.361132 181.579971,119.557063 C181.81249,119.752477 182.000155,119.997519 182.141935,120.289089 C182.283715,120.582727 182.354863,120.945638 182.354863,121.376789" id="Fill-48" fill="#FFFFFF" mask="url(#mask-3)"></path>
                    <path d="M193.173335,122.629144 C193.415649,122.528335 193.626515,122.389271 193.806962,122.212468 C193.986893,122.033597 194.132282,121.826293 194.244159,121.590556 C194.356552,121.354301 194.41842,121.099436 194.429762,120.827511 L194.429762,117.835302 L191.969495,117.835302 C191.685935,117.835302 191.421451,117.888033 191.17759,117.995045 C190.931667,118.10154 190.716677,118.246291 190.530043,118.429815 C190.343925,118.613338 190.198536,118.82788 190.092845,119.07344 C189.985608,119.318999 189.933021,119.58317 189.933021,119.867502 L189.933021,120.738076 C189.933021,121.021891 189.985608,121.286578 190.092845,121.533172 C190.198536,121.777698 190.343925,121.99379 190.530043,122.180416 C190.716677,122.366524 190.931667,122.513343 191.17759,122.620872 C191.421451,122.725817 191.685935,122.779581 191.969495,122.779581 L192.403084,122.779581 C192.675301,122.779581 192.93102,122.729952 193.173335,122.629144 L193.173335,122.629144 Z M197.192149,123.862629 C196.679164,123.862629 196.231655,123.753549 195.851169,123.534354 C195.471199,123.31516 195.168564,123.019454 194.944294,122.647238 C194.649392,123.019454 194.285404,123.31516 193.855425,123.534354 C193.423898,123.753549 192.958345,123.862629 192.455671,123.862629 L191.915876,123.862629 C191.485381,123.862629 191.079633,123.781982 190.698632,123.618103 C190.317631,123.456292 189.985608,123.232445 189.702049,122.948113 C189.419005,122.663781 189.196797,122.332921 189.034394,121.954501 C188.871992,121.575046 188.790018,121.169744 188.790018,120.738076 L188.790018,120.045339 C188.790018,119.74343 188.830747,119.455479 188.910144,119.180452 C188.990056,118.904908 189.10348,118.649009 189.251962,118.411721 C189.398382,118.175467 189.572642,117.961442 189.773712,117.768096 C189.974266,117.576301 190.198536,117.415524 190.446522,117.284731 C190.198536,117.153938 189.974266,116.993161 189.773712,116.800849 C189.572642,116.60802 189.398382,116.393479 189.251962,116.156708 C189.10348,115.920453 188.990056,115.664554 188.910144,115.38901 C188.830747,115.113984 188.790018,114.826033 188.790018,114.523089 L188.790018,113.902211 C188.790018,113.470026 188.871992,113.064723 189.034394,112.686303 C189.196797,112.3084 189.419005,111.975989 189.702049,111.691657 C189.985608,111.407842 190.317631,111.184512 190.698632,111.02115 C191.079633,110.859339 191.485381,110.777141 191.915876,110.777141 L192.455671,110.777141 C192.887197,110.777141 193.290883,110.859339 193.669822,111.02115 C194.047214,111.184512 194.377175,111.407842 194.660734,111.691657 C194.944294,111.975989 195.167533,112.3084 195.328904,112.686303 C195.491306,113.064723 195.572765,113.470026 195.572765,113.902211 L195.572765,113.990613 L194.429762,114.177755 L194.429762,113.902211 C194.429762,113.617879 194.377175,113.353708 194.271484,113.108149 C194.165278,112.862589 194.02092,112.64753 193.836864,112.464524 C193.654871,112.281 193.440912,112.135732 193.194988,112.029754 C192.951127,111.922225 192.686128,111.869494 192.403084,111.869494 L191.969495,111.869494 C191.685935,111.869494 191.421451,111.922225 191.17759,112.029754 C190.931667,112.135732 190.716677,112.281 190.530043,112.464524 C190.343925,112.64753 190.198536,112.862589 190.092845,113.108149 C189.985608,113.353708 189.933021,113.617879 189.933021,113.902211 L189.933021,114.70196 C189.933021,114.985776 189.985608,115.250463 190.092845,115.496023 C190.198536,115.741582 190.343925,115.957158 190.530043,116.143266 C190.716677,116.329375 190.931667,116.476711 191.17759,116.583723 C191.421451,116.690218 191.685935,116.743466 191.969495,116.743466 L194.429762,116.743466 L194.429762,115.580805 L195.572765,115.39418 L195.572765,116.724855 L197.33496,116.724855 L197.33496,117.808936 L195.572765,117.808936 L195.572765,120.870419 C195.584108,121.137692 195.625353,121.386353 195.6965,121.616921 C195.768164,121.847488 195.872307,122.050657 196.010994,122.225392 C196.149165,122.39961 196.321363,122.53609 196.528104,122.633796 C196.73536,122.731503 196.974581,122.779581 197.245767,122.779581 L197.511282,122.779581 L197.351973,123.862629 L197.192149,123.862629 Z" id="Fill-49" fill="#FFFFFF" mask="url(#mask-3)"></path>
                    <path d="M210.410258,114.08832 C210.410258,113.803987 210.35767,113.539817 210.251464,113.294257 C210.145774,113.048697 209.999354,112.833122 209.813236,112.647014 C209.627633,112.459354 209.411612,112.313569 209.16672,112.206557 C208.921827,112.100062 208.657343,112.046297 208.373784,112.046297 L205.55056,112.046297 L205.55056,122.593473 L208.373784,122.593473 C208.657343,122.593473 208.921827,122.539708 209.16672,122.433213 C209.411612,122.327235 209.627633,122.181967 209.813236,121.99896 C209.999354,121.815436 210.145774,121.600895 210.251464,121.355335 C210.35767,121.109776 210.410258,120.844054 210.410258,120.560239 L210.410258,114.08832 Z M211.3094,121.776664 C211.146997,122.156118 210.924274,122.486978 210.64123,122.77131 C210.35767,123.055642 210.025648,123.278455 209.644647,123.4413 C209.264677,123.604145 208.858413,123.685826 208.427402,123.685826 L204.408588,123.685826 L204.408588,110.954978 L208.427402,110.954978 C208.858413,110.954978 209.264677,111.036142 209.644647,111.199504 C210.025648,111.361832 210.35767,111.585679 210.64123,111.869494 C210.924274,112.153826 211.146997,112.486754 211.3094,112.867759 C211.471802,113.249798 211.553261,113.657685 211.553261,114.08832 L211.553261,120.560239 C211.553261,120.992941 211.471802,121.397727 211.3094,121.776664 L211.3094,121.776664 Z" id="Fill-50" fill="#FFFFFF" mask="url(#mask-3)"></path>
                    <path d="M218.874308,117.027798 C218.874308,116.80757 218.833063,116.602334 218.750573,116.410539 C218.668083,116.218744 218.556206,116.051246 218.414426,115.908046 C218.272646,115.766914 218.105604,115.654215 217.91433,115.5715 C217.722025,115.488268 217.517346,115.446911 217.298748,115.446911 L216.57335,115.446911 C216.35372,115.446911 216.149557,115.488268 215.957768,115.5715 C215.765463,115.654215 215.599452,115.766914 215.456641,115.908046 C215.315892,116.051246 215.203499,116.218744 215.121009,116.410539 C215.038004,116.602334 214.996758,116.80757 214.996758,117.027798 L214.996758,118.377084 L218.874308,118.377084 L218.874308,117.027798 Z M219.755406,122.229528 C219.617235,122.5547 219.425961,122.839033 219.184162,123.081491 C218.941847,123.324465 218.659318,123.515226 218.334514,123.653774 C218.010225,123.792838 217.664797,123.862629 217.298748,123.862629 L216.57335,123.862629 C216.207301,123.862629 215.861873,123.792838 215.537584,123.653774 C215.212779,123.515226 214.92922,123.324465 214.687421,123.081491 C214.445106,122.839033 214.254863,122.5547 214.115661,122.229528 C213.978006,121.903838 213.908405,121.55747 213.908405,121.190422 L213.908405,117.089834 C213.908405,116.722787 213.978006,116.376419 214.115661,116.051246 C214.254863,115.725556 214.445106,115.441224 214.687421,115.198766 C214.92922,114.955791 215.212779,114.76503 215.537584,114.625449 C215.861873,114.487419 216.207301,114.417628 216.57335,114.417628 L217.298748,114.417628 C217.664797,114.417628 218.010225,114.487419 218.334514,114.625449 C218.659318,114.76503 218.941847,114.955791 219.184162,115.198766 C219.425961,115.441224 219.617235,115.725556 219.755406,116.051246 C219.894092,116.376419 219.963693,116.722787 219.963693,117.089834 L219.963693,119.22853 L214.996758,119.22853 L214.996758,121.252459 C214.996758,121.471653 215.038004,121.677923 215.121009,121.869718 C215.203499,122.061513 215.315892,122.229528 215.456641,122.371177 C215.599452,122.513343 215.765463,122.626559 215.957768,122.709274 C216.149557,122.791989 216.35372,122.833346 216.57335,122.833346 L217.298748,122.833346 C217.517346,122.833346 217.722025,122.791989 217.91433,122.709274 C218.105604,122.626559 218.272646,122.513343 218.414426,122.371177 C218.556206,122.229528 218.668083,122.061513 218.750573,121.869718 C218.833063,121.677923 218.874308,121.471653 218.874308,121.252459 L218.874308,120.649674 L219.963693,120.827511 L219.963693,121.190422 C219.963693,121.55747 219.894092,121.903838 219.755406,122.229528 L219.755406,122.229528 Z" id="Fill-51" fill="#FFFFFF" mask="url(#mask-3)"></path>
                    <path d="M227.989618,122.229269 C227.850931,122.554959 227.660173,122.838774 227.418374,123.081749 C227.176059,123.324724 226.893531,123.515485 226.568726,123.654032 C226.244437,123.793097 225.89901,123.862887 225.53296,123.862887 L224.806532,123.862887 C224.440997,123.862887 224.09557,123.793097 223.770765,123.654032 C223.445961,123.515485 223.162917,123.324724 222.920602,123.081749 C222.678287,122.838774 222.489076,122.554959 222.349874,122.229269 C222.211187,121.903579 222.141586,121.557211 222.141586,121.190164 L222.141586,117.090093 C222.141586,116.723046 222.211187,116.376677 222.349874,116.050988 C222.489076,115.725815 222.678287,115.441483 222.920602,115.198508 C223.162917,114.95605 223.445961,114.764772 223.770765,114.625708 C224.09557,114.48716 224.440997,114.417887 224.806532,114.417887 L225.53296,114.417887 C225.89901,114.417887 226.244437,114.48716 226.568726,114.625708 C226.893531,114.764772 227.176059,114.95605 227.418374,115.198508 C227.660173,115.441483 227.850931,115.725815 227.989618,116.050988 C228.12882,116.376677 228.197905,116.723046 228.197905,117.090093 L228.197905,117.453004 L227.108521,117.630841 L227.108521,117.02754 C227.108521,116.807828 227.067276,116.602592 226.984786,116.410797 C226.901264,116.218485 226.790418,116.050988 226.647607,115.908305 C226.506859,115.767172 226.339816,115.653956 226.148542,115.571242 C225.956237,115.488527 225.750528,115.447169 225.53296,115.447169 L224.806532,115.447169 C224.587933,115.447169 224.382739,115.488527 224.190949,115.571242 C223.999675,115.653956 223.832633,115.767172 223.690853,115.908305 C223.549073,116.050988 223.436681,116.218485 223.35419,116.410797 C223.2717,116.602592 223.230455,116.807828 223.230455,117.02754 L223.230455,121.252717 C223.230455,121.471911 223.2717,121.677665 223.35419,121.869977 C223.436681,122.061772 223.549073,122.229269 223.690853,122.371435 C223.832633,122.513601 223.999675,122.6263 224.190949,122.709015 C224.382739,122.79173 224.587933,122.833088 224.806532,122.833088 L225.53296,122.833088 C225.750528,122.833088 225.956237,122.79173 226.148542,122.709015 C226.339816,122.6263 226.506859,122.513601 226.647607,122.371435 C226.790418,122.229269 226.901264,122.061772 226.984786,121.869977 C227.067276,121.677665 227.108521,121.471911 227.108521,121.252717 L227.108521,120.649416 L228.197905,120.827253 L228.197905,121.190164 C228.197905,121.557211 228.12882,121.903579 227.989618,122.229269" id="Fill-52" fill="#FFFFFF" mask="url(#mask-3)"></path>
                    <path d="M235.342733,117.027798 C235.342733,116.80757 235.301488,116.602334 235.218998,116.410539 C235.135477,116.218744 235.0236,116.051246 234.88182,115.908046 C234.74004,115.766914 234.573513,115.654215 234.381724,115.5715 C234.19045,115.488268 233.983709,115.446911 233.766141,115.446911 L233.039713,115.446911 C232.822145,115.446911 232.616951,115.488268 232.424646,115.5715 C232.232857,115.654215 232.065814,115.766914 231.925065,115.908046 C231.78277,116.051246 231.670893,116.218744 231.588403,116.410539 C231.505913,116.602334 231.464152,116.80757 231.464152,117.027798 L231.464152,121.252459 C231.464152,121.471653 231.505913,121.677923 231.588403,121.869718 C231.670893,122.061513 231.78277,122.229528 231.925065,122.371177 C232.065814,122.513343 232.232857,122.626559 232.424646,122.709274 C232.616951,122.791989 232.822145,122.833346 233.039713,122.833346 L233.766141,122.833346 C233.983709,122.833346 234.19045,122.791989 234.381724,122.709274 C234.573513,122.626559 234.74004,122.513343 234.88182,122.371177 C235.0236,122.229528 235.135477,122.061513 235.218998,121.869718 C235.301488,121.677923 235.342733,121.471653 235.342733,121.252459 L235.342733,117.027798 Z M236.222799,122.229528 C236.084113,122.5547 235.894386,122.839033 235.652586,123.081491 C235.410272,123.324465 235.126712,123.515226 234.802423,123.653774 C234.477618,123.792838 234.132191,123.862629 233.766141,123.862629 L233.039713,123.862629 C232.674179,123.862629 232.328751,123.792838 232.003947,123.653774 C231.679142,123.515226 231.396098,123.324465 231.154814,123.081491 C230.9125,122.839033 230.722257,122.5547 230.583055,122.229528 C230.444368,121.903838 230.374767,121.55747 230.374767,121.190422 L230.374767,117.089834 C230.374767,116.722787 230.444368,116.376419 230.583055,116.051246 C230.722257,115.725556 230.9125,115.441224 231.154814,115.198766 C231.396098,114.955791 231.679142,114.76503 232.003947,114.625449 C232.328751,114.487419 232.674179,114.417628 233.039713,114.417628 L233.766141,114.417628 C234.132191,114.417628 234.477618,114.487419 234.802423,114.625449 C235.126712,114.76503 235.410272,114.955791 235.652586,115.198766 C235.894386,115.441224 236.084113,115.725556 236.222799,116.051246 C236.362001,116.376419 236.431087,116.722787 236.431087,117.089834 L236.431087,121.190422 C236.431087,121.55747 236.362001,121.903838 236.222799,122.229528 L236.222799,122.229528 Z" id="Fill-53" fill="#FFFFFF" mask="url(#mask-3)"></path>
                    <path d="M241.27408,115.633433 C241.055481,115.633433 240.850803,115.67479 240.658498,115.757505 C240.466193,115.84022 240.300181,115.953436 240.158401,116.094568 C240.016622,116.237251 239.90526,116.404749 239.822254,116.597061 C239.739764,116.788856 239.698519,116.994609 239.698519,117.21432 L239.698519,123.685722 L238.609134,123.685722 L238.609134,114.594328 L238.972091,114.594328 L239.565504,115.518666 C239.812974,115.180569 240.124374,114.91278 240.50022,114.714781 C240.873487,114.516782 241.282329,114.417525 241.725198,114.417525 L242.363465,114.417525 L242.363465,115.633433 L241.27408,115.633433 Z" id="Fill-54" fill="#FFFFFF" mask="url(#mask-3)"></path>
                    <path d="M248.782019,119.282295 L246.478998,119.282295 C246.261431,119.282295 246.056237,119.323652 245.863932,119.406367 C245.672142,119.489082 245.5051,119.603332 245.364351,119.748082 C245.222056,119.893867 245.110178,120.061365 245.027688,120.254194 C244.945198,120.447023 244.903953,120.652259 244.903953,120.870419 L244.903953,121.252459 C244.903953,121.471653 244.945198,121.677923 245.027688,121.869718 C245.110178,122.061513 245.222056,122.229528 245.364351,122.371177 C245.5051,122.513343 245.672142,122.626559 245.863932,122.709274 C246.056237,122.791989 246.261431,122.833346 246.478998,122.833346 L247.205427,122.833346 C247.422994,122.833346 247.629735,122.791989 247.821009,122.709274 C248.012283,122.626559 248.179325,122.513343 248.321105,122.371177 C248.462885,122.229528 248.574762,122.061513 248.658283,121.869718 C248.740774,121.677923 248.782019,121.471653 248.782019,121.252459 L248.782019,119.282295 Z M249.507416,123.685826 L248.905754,122.779581 C248.658283,123.105271 248.347399,123.367891 247.975678,123.565372 C247.603441,123.763888 247.196147,123.862629 246.754309,123.862629 L246.478998,123.862629 C246.113464,123.862629 245.768037,123.792838 245.443232,123.653774 C245.118427,123.515226 244.835383,123.324465 244.5941,123.081491 C244.351785,122.839033 244.161542,122.5547 244.022856,122.229528 C243.883654,121.903838 243.814568,121.55747 243.814568,121.190422 L243.814568,121.102021 C243.814568,120.734974 243.883654,120.388606 244.022856,120.063433 C244.161542,119.737743 244.351785,119.453411 244.5941,119.210953 C244.835383,118.967978 245.118427,118.777734 245.443232,118.63867 C245.768037,118.499605 246.113464,118.429815 246.478998,118.429815 L248.782019,118.429815 L248.782019,117.027798 C248.782019,116.80757 248.740774,116.602334 248.658283,116.410539 C248.574762,116.218744 248.462885,116.051246 248.321105,115.908046 C248.179325,115.766914 248.012283,115.654215 247.821009,115.5715 C247.629735,115.488268 247.422994,115.446911 247.205427,115.446911 L246.567675,115.446911 C246.349592,115.446911 246.145429,115.488268 245.953124,115.5715 C245.760303,115.654215 245.594292,115.766914 245.452512,115.908046 C245.310732,116.051246 245.199371,116.218744 245.116881,116.410539 C245.034391,116.602334 244.99263,116.80757 244.99263,117.027798 L244.99263,117.355039 L243.903245,117.178236 L243.903245,117.089834 C243.903245,116.722787 243.971815,116.376419 244.111017,116.051246 C244.249704,115.725556 244.439946,115.441224 244.682261,115.198766 C244.924576,114.955791 245.20762,114.76503 245.532425,114.625449 C245.856198,114.487419 246.201625,114.417628 246.567675,114.417628 L247.205427,114.417628 C247.571477,114.417628 247.916904,114.487419 248.241709,114.625449 C248.565998,114.76503 248.849557,114.955791 249.091872,115.198766 C249.333671,115.441224 249.523398,115.725556 249.662085,116.051246 C249.801287,116.376419 249.870372,116.722787 249.870372,117.089834 L249.870372,123.685826 L249.507416,123.685826 Z" id="Fill-55" fill="#FFFFFF" mask="url(#mask-3)"></path>
                    <path d="M255.35055,123.685826 C255.020074,123.685826 254.708674,123.62379 254.416865,123.499717 C254.125056,123.375128 253.870884,123.202978 253.655894,122.983784 C253.439873,122.765623 253.269222,122.510758 253.141878,122.219705 C253.015049,121.930203 252.95215,121.619506 252.95215,121.288129 L252.95215,115.633536 L251.322971,115.633536 L251.322971,114.594431 L252.95215,114.594431 L252.95215,112.410759 L254.040504,112.232922 L254.040504,114.594431 L256.342493,114.594431 L256.342493,115.633536 L254.040504,115.633536 L254.040504,121.34086 C254.040504,121.525418 254.074531,121.694983 254.14207,121.852141 C254.209609,122.008782 254.303441,122.146296 254.421505,122.265198 C254.540085,122.383584 254.67774,122.476638 254.837565,122.544361 C254.996874,122.613118 255.167525,122.647238 255.35055,122.647238 L256.342493,122.647238 L256.342493,123.685826 L255.35055,123.685826 Z" id="Fill-56" fill="#FFFFFF" mask="url(#mask-3)"></path>
                    <path d="M263.309761,117.027798 C263.309761,116.80757 263.268516,116.602334 263.186026,116.410539 C263.103536,116.218744 262.990627,116.051246 262.849879,115.908046 C262.707583,115.766914 262.540541,115.654215 262.348751,115.5715 C262.157477,115.488268 261.951768,115.446911 261.733169,115.446911 L261.007772,115.446911 C260.789173,115.446911 260.58501,115.488268 260.39219,115.5715 C260.199884,115.654215 260.033873,115.766914 259.892093,115.908046 C259.750313,116.051246 259.638952,116.218744 259.556462,116.410539 C259.473456,116.602334 259.432211,116.80757 259.432211,117.027798 L259.432211,121.252459 C259.432211,121.471653 259.473456,121.677923 259.556462,121.869718 C259.638952,122.061513 259.750313,122.229528 259.892093,122.371177 C260.033873,122.513343 260.199884,122.626559 260.39219,122.709274 C260.58501,122.791989 260.789173,122.833346 261.007772,122.833346 L261.733169,122.833346 C261.951768,122.833346 262.157477,122.791989 262.348751,122.709274 C262.540541,122.626559 262.707583,122.513343 262.849879,122.371177 C262.990627,122.229528 263.103536,122.061513 263.186026,121.869718 C263.268516,121.677923 263.309761,121.471653 263.309761,121.252459 L263.309761,117.027798 Z M264.189827,122.229528 C264.052172,122.5547 263.861413,122.839033 263.619614,123.081491 C263.3773,123.324465 263.09374,123.515226 262.769451,123.653774 C262.444646,123.792838 262.099219,123.862629 261.733169,123.862629 L261.007772,123.862629 C260.642238,123.862629 260.29681,123.792838 259.972006,123.653774 C259.647201,123.515226 259.364157,123.324465 259.122873,123.081491 C258.880559,122.839033 258.689285,122.5547 258.550598,122.229528 C258.412427,121.903838 258.342826,121.55747 258.342826,121.190422 L258.342826,117.089834 C258.342826,116.722787 258.412427,116.376419 258.550598,116.051246 C258.689285,115.725556 258.880559,115.441224 259.122873,115.198766 C259.364157,114.955791 259.647201,114.76503 259.972006,114.625449 C260.29681,114.487419 260.642238,114.417628 261.007772,114.417628 L261.733169,114.417628 C262.099219,114.417628 262.444646,114.487419 262.769451,114.625449 C263.09374,114.76503 263.3773,114.955791 263.619614,115.198766 C263.861413,115.441224 264.052172,115.725556 264.189827,116.051246 C264.329029,116.376419 264.398115,116.722787 264.398115,117.089834 L264.398115,121.190422 C264.398115,121.55747 264.329029,121.903838 264.189827,122.229528 L264.189827,122.229528 Z" id="Fill-57" fill="#FFFFFF" mask="url(#mask-3)"></path>
                    <path d="M269.24219,115.633433 C269.022561,115.633433 268.817882,115.67479 268.626608,115.757505 C268.434303,115.84022 268.268292,115.953436 268.125481,116.094568 C267.984732,116.237251 267.872339,116.404749 267.789334,116.597061 C267.706844,116.788856 267.665599,116.994609 267.665599,117.21432 L267.665599,123.685722 L266.577245,123.685722 L266.577245,114.594328 L266.939686,114.594328 L267.532583,115.518666 C267.780054,115.180569 268.091969,114.91278 268.467299,114.714781 C268.841598,114.516782 269.250439,114.417525 269.692793,114.417525 L270.330544,114.417525 L270.330544,115.633433 L269.24219,115.633433 Z" id="Fill-58" fill="#FFFFFF" mask="url(#mask-3)"></path>
                    <path d="M278.014908,121.376789 C278.014908,121.743836 277.940667,122.080382 277.794247,122.385393 C277.646281,122.690404 277.445211,122.95199 277.19207,123.17015 C276.937897,123.389345 276.644026,123.559944 276.310972,123.680915 C275.977919,123.802402 275.627851,123.862887 275.261802,123.862887 L274.535373,123.862887 C274.169324,123.862887 273.819256,123.793097 273.486202,123.654032 C273.153149,123.515485 272.860309,123.324724 272.609745,123.081749 C272.359182,122.838774 272.158628,122.554959 272.008599,122.229269 C271.857539,121.903579 271.782267,121.557211 271.782267,121.190681 L271.782267,120.827253 L272.871651,120.649416 L272.871651,121.252717 C272.871651,121.471911 272.917021,121.677665 273.008791,121.869977 C273.09953,122.061772 273.22275,122.229269 273.376388,122.371435 C273.528479,122.513601 273.706863,122.6263 273.907933,122.709015 C274.107456,122.79173 274.316775,122.833088 274.535373,122.833088 L275.261802,122.833088 C275.4804,122.833088 275.689719,122.801552 275.890273,122.735381 C276.090312,122.67076 276.269727,122.577188 276.426459,122.456218 C276.582159,122.334731 276.705894,122.187912 276.797664,122.016795 C276.88995,121.845162 276.934804,121.649748 276.934804,121.430554 C276.934804,121.104864 276.863656,120.838626 276.722907,120.631839 C276.580096,120.424535 276.393463,120.251351 276.159913,120.112286 C275.926878,119.973222 275.661363,119.857938 275.363883,119.765918 C275.065888,119.673898 274.759643,119.582394 274.447212,119.491408 C274.134781,119.398871 273.829052,119.293409 273.530541,119.175024 C273.23203,119.057672 272.967546,118.902065 272.733996,118.71027 C272.49993,118.517441 272.313296,118.2755 272.171517,117.985481 C272.030252,117.695979 271.95962,117.334619 271.95962,116.903467 C271.95962,116.536937 272.030252,116.199874 272.171517,115.894863 C272.313296,115.589852 272.505602,115.328784 272.747916,115.110106 C272.9892,114.890912 273.271728,114.72083 273.592408,114.599342 C273.91412,114.477855 274.258516,114.417887 274.624566,114.417887 L275.261802,114.417887 C275.627851,114.417887 275.973279,114.48716 276.297568,114.625708 C276.621341,114.764772 276.904901,114.95605 277.1467,115.198508 C277.389015,115.441483 277.579773,115.725815 277.71846,116.050988 C277.857146,116.376677 277.926747,116.723046 277.926747,117.090093 L277.926747,117.12473 L276.837362,117.302567 L276.837362,117.028057 C276.837362,116.807828 276.796117,116.602592 276.713627,116.410797 C276.630622,116.218485 276.518229,116.050988 276.37748,115.908305 C276.234669,115.767172 276.068658,115.653956 275.876353,115.571242 C275.685079,115.488527 275.4804,115.447169 275.261802,115.447169 L274.624566,115.447169 C274.405967,115.447169 274.200257,115.479221 274.008983,115.544876 C273.81771,115.610014 273.650667,115.703068 273.508887,115.824556 C273.367107,115.946043 273.254715,116.092345 273.172225,116.263978 C273.089734,116.435095 273.047974,116.630508 273.047974,116.849186 C273.047974,117.163502 273.119637,117.419401 273.260386,117.617917 C273.402681,117.816432 273.589831,117.982896 273.823381,118.119376 C274.0559,118.254821 274.321415,118.369588 274.619926,118.460574 C274.917406,118.552078 275.221588,118.6472 275.530926,118.744907 C275.84181,118.842613 276.144961,118.953245 276.442957,119.078351 C276.741468,119.202423 277.006983,119.361132 277.241048,119.557063 C277.473567,119.752477 277.661232,119.997519 277.801981,120.289089 C277.944792,120.582727 278.014908,120.945638 278.014908,121.376789" id="Fill-59" fill="#FFFFFF" mask="url(#mask-3)"></path>
                </g>
            </g>
        </g>
    </g>
</svg>